<?xml version="1.0" encoding="utf-8"?>
<!-- Generator: Adobe Illustrator 24.1.3, SVG Export Plug-In . SVG Version: 6.00 Build 0)  -->
<svg version="1.1" preserveAspectRatio="none" xmlns="http://www.w3.org/2000/svg" xmlns:xlink="http://www.w3.org/1999/xlink" x="0px" y="0px"
	 viewBox="0 0 1000 700" style="enable-background:new 0 0 1000 700;" xml:space="preserve">
<style type="text/css">
	.st0{display:none;}
	.st1{display:inline;}
</style>
<g>
	<path fill="red" d="M142.78,1c22.49,0,39.73,16.59,51.73,49.75c12,33.17,18,73.59,18,121.25c0,46.67-7.38,84.17-22.13,112.5
		c-14.75,28.34-26.89,44.34-36.4,48c20.17,12.67,36.4,34.09,48.66,64.25c12.27,30.17,18.4,71.75,18.4,124.75
		c0,58.34-7.85,102.5-23.53,132.5c-15.69,30-33.04,45-52.06,45H0v-19.5c16,0,26.51-11.33,31.53-34c5.02-22.66,7.53-58.5,7.53-107.5
		V162c0-49-2.51-84.83-7.53-107.5C26.51,31.83,16,20.5,0,20.5V1H142.78z M78.66,18v305.5h33.99c22.84,0,37.91-15.58,45.19-46.75
		c7.29-31.16,10.93-69.08,10.93-113.75c0-45-3.22-80.41-9.66-106.25C152.67,30.92,139.58,18,119.85,18H78.66z M78.66,344v336h40.93
		c18.04,0,31.82-14.67,41.33-44c9.51-29.32,14.26-72,14.26-128c0-52-5.18-92.33-15.53-121c-10.36-28.66-26.46-43-48.33-43H78.66z"/>
	<path fill="red" d="M350.35,0.96c20.08,0,35.4,13.63,45.93,40.87c10.53,27.24,17.44,40.86,20.73,40.86c5.78,0,13.6-23.56,23.46-70.67h4.93
		l3.73,321.64h-4.13c-9.42-110.25-22.29-190.3-38.59-240.14c-16.31-49.84-33.35-74.76-51.13-74.76c-19.29,0-32.91,28.93-40.86,86.78
		c-7.96,57.86-11.93,141.43-11.93,250.72c0,128.85,5.71,215.07,17.13,258.65c11.42,43.59,25.88,65.39,43.39,65.39
		c22.75,0,41.26-23.56,55.53-70.67c14.26-47.11,23.53-100.79,27.8-161.06h5.47c-3.82,62.82-13.38,120.43-28.66,172.84
		c-15.29,52.4-36.08,78.6-62.39,78.6c-29.78,0-54.95-35.98-75.52-107.93c-20.58-71.95-30.86-153.13-30.86-243.51
		c0-92.95,9.98-174.11,29.93-243.51C304.25,35.66,326.27,0.96,350.35,0.96z"/>
	<path fill="red" d="M730.17,1v19.5c-16,0-26.51,11.34-31.53,34c-5.02,22.67-7.53,58.5-7.53,107.5v376c0,49,2.51,84.83,7.53,107.5
		c5.02,22.67,15.53,34,31.53,34V699H612.85v-19.5c16,0,26.51-11.33,31.53-34c5.02-22.66,7.53-58.5,7.53-107.5V357.5h-40.93
		L546.33,699H475.8v-19.5c8.53,0,15.91-3.66,22.13-11c6.22-7.33,11.87-23.5,16.93-48.5l32-168.5c10.49-9.32,18.97-19.25,25.46-29.75
		c6.49-10.5,17.2-31.91,32.13-64.25h-23.73c-22.66,0-41.79-15.83-57.39-47.5c-15.6-31.66-23.4-71-23.4-118v-22
		c0-42,5.67-80.67,17-116c11.33-35.33,31.48-53,60.46-53H730.17z M651.91,19.5h-46.13c-24.44,0-40.75,14.67-48.93,44
		c-8.18,29.34-12.26,65.34-12.26,108V187c0,42.34,3.95,78.25,11.87,107.75c7.91,29.5,23.77,44.25,47.59,44.25h47.86V19.5z"/>
	<path fill="red" d="M875.48,342.66h-31.06v184.28c0,47.9,2.51,85.38,7.53,112.42c5.02,27.05,15.53,40.57,31.53,40.57V699H766.16v-19.07
		c16,0,26.51-11.07,31.53-33.24c5.02-22.16,7.53-57.19,7.53-105.09V174.02c0-47.9-2.51-82.93-7.53-105.1
		c-5.02-22.16-15.53-33.24-31.53-33.24V16.62h117.32v19.06c-16,0-26.51,11.08-31.53,33.24c-5.02,22.16-7.53,57.19-7.53,105.1v148.6
		h28.4c3.29,0,6.84-3.5,10.67-10.51c3.82-7.01,7.38-20.12,10.67-39.35c3.73-28.02,6.71-62.57,8.93-103.63
		c2.22-51.81,6.11-92.95,11.66-123.43C920.3,15.24,929.3,0,941.74,0c20.71,4.57,31.06,36.01,31.06,94.34
		c-0.36,57.36-7.87,86.85-22.53,88.48c-14.22,0-21.86-22.48-22.93-67.46c0-43.66,4.09-69.9,12.26-78.7c3.02-2.6,4.54-5.38,4.54-8.31
		c0-4.56-1.6-7-4.8-7.33c-10.58,1.31-17.95,17.11-22.13,47.42c-4.18,30.3-7.16,65.18-8.93,104.6c-2.67,50.19-6,88.31-10,114.38
		c-3.56,17.6-6.82,29.57-9.8,35.93c-2.98,6.35-5.18,10.68-6.6,12.96c1.42,6.52,5.8,13.12,13.13,19.79
		c7.33,6.68,16.55,11.33,27.66,13.93l38.93,251.74c4.62,24.44,10.04,40.25,16.27,47.41c6.22,7.17,13.6,10.75,22.13,10.75V699h-71.86
		L875.48,342.66z"/>
</g>
<g class="st0">
	<path class="st1" d="M90.96,0.37c19.03,0,33.54,13.64,43.52,40.9c9.98,27.27,16.53,40.9,19.64,40.9c5.47,0,12.89-23.58,22.23-70.73
		h4.67l3.54,321.91h-3.92C171.72,223,159.53,142.88,144.08,93c-15.45-49.88-31.6-74.82-48.45-74.82
		c-18.28,0-31.18,28.95-38.72,86.85c-7.54,57.9-11.31,141.55-11.31,250.93c0,128.96,5.41,215.25,16.23,258.87
		c10.82,43.63,24.53,65.44,41.12,65.44c21.56,0,39.1-23.58,52.61-70.73s22.3-100.88,26.34-161.19h5.18
		c-3.62,62.88-12.68,120.53-27.16,172.98C145.44,673.77,125.74,700,100.81,700c-28.21,0-52.07-36.01-71.56-108.02
		C9.75,519.96,0,438.72,0,348.26C0,255.24,9.45,174,28.36,104.55C47.27,35.1,68.13,0.37,90.96,0.37z"/>
	<path class="st1" d="M324.28,355.07h-37.77v177.05c0,47.28,2.17,81.85,6.51,103.72c4.34,21.88,13.66,32.8,27.98,32.8v18.82H212.35
		v-18.82c15.16,0,25.12-10.93,29.88-32.8c4.76-21.87,7.14-56.44,7.14-103.72V169.33c0-47.28-2.38-81.85-7.14-103.72
		c-4.76-21.87-14.72-32.81-29.88-32.81V13.99H321v18.81c-14.32,0-23.64,10.94-27.98,32.81c-4.34,21.88-6.51,56.44-6.51,103.72
		v165.95h37.9c0.84-90.37,9.9-168.04,27.16-233.01C369.76,34.09,393.93,0,424.08,0c30.91,0,56.3,34.98,76.18,104.93
		c19.87,69.95,29.81,151.72,29.81,245.31c0,96.49-10.15,178.9-30.44,247.24C479.32,665.83,454.14,700,424.08,700
		c-29.31,0-53.27-34.25-71.88-102.76C333.92,530.35,324.62,449.62,324.28,355.07z M424.46,19.78c-18.53,0-33.31,30.64-44.34,91.91
		c-11.03,61.27-16.55,140.79-16.55,238.56c0,97.45,5.73,176.81,17.18,238.08c11.45,61.27,26.02,91.91,43.71,91.91
		c18.44,0,33.18-30.63,44.21-91.91c11.03-61.27,16.55-140.62,16.55-238.08c0-97.76-5.73-177.29-17.18-238.56
		C456.59,50.42,442.06,19.78,424.46,19.78z"/>
	<path class="st1" d="M571.75,494.95c5.73-10.44,11.83-33.99,18.32-70.66c6.48-36.66,19.54-145.31,39.16-325.96
		c0.76-8.01,1.22-13.53,1.39-16.57c0.17-3.03,0.25-6.61,0.25-10.74c-0.17-13.6-3.24-26.46-9.22-38.61
		c-5.98-12.14-14.44-18.21-25.39-18.21V0h162.58v14.2c-15.16,0-25.12,8.26-29.88,24.77c-4.76,16.51-7.14,42.61-7.14,78.3v377.68
		h47.12L752.53,700h-4.29c-3.2-96.4-8.06-152.42-14.59-168.08c-6.53-15.66-13.03-23.49-19.52-23.49h-116.6
		c-6.49,0-12.99,7.83-19.52,23.49c-6.53,15.66-11.39,71.68-14.59,168.08h-4.29L542.7,494.95H571.75z M684.69,494.95V14.2
		c-18.53,0-30.57,7.83-36.13,23.49c-5.56,15.66-10.49,40.97-14.78,75.94c-19.79,175.06-32.53,279.47-38.21,313.21
		c-5.68,33.75-10.63,56.45-14.84,68.11H684.69z"/>
	<path class="st1" d="M889.59,0h5.56l73.77,622.77c3.37,23.95,7.83,39.6,13.39,46.98c5.56,7.38,11.45,11.07,17.69,11.07V700H897.3
		v-19.19c14.57,0,23.64-3.69,27.22-11.07c3.58-7.38,5.37-18.94,5.37-34.68c-0.17-16.73-5.35-66.73-15.54-150.03h-73.52l-7.71,67.39
		c-0.84,8.53-1.26,21.98-1.26,40.34c0.76,30.18,3.52,52.39,8.27,66.66c4.76,14.26,10.46,21.39,17.12,21.39V700h-72.39v-19.19
		c20.55,0,38.49-77.55,53.82-232.68L889.59,0z M842.6,466.83h69.23L877.08,164.3L842.6,466.83z"/>
</g>
<g class="st0">
	<path class="st1" d="M62.77,0c9.89,0,17.47,16.63,22.74,49.89c5.28,33.27,7.91,73.8,7.91,121.6c0,46.8-3.24,84.41-9.73,112.82
		c-6.49,28.42-11.82,44.46-16,48.14c8.87,12.71,16,34.18,21.39,64.44c5.39,30.26,8.09,71.95,8.09,125.11
		c0,58.5-3.45,102.79-10.34,132.88C79.93,684.96,72.3,700,63.94,700H0v-19.56c7.03,0,11.65-11.36,13.86-34.09
		c2.21-22.73,3.31-58.67,3.31-107.81V161.46c0-49.14-1.11-85.07-3.31-107.81C11.65,30.92,7.03,19.55,0,19.55V0H62.77z M34.58,17.05
		v306.38h14.95c10.04,0,16.66-15.62,19.87-46.88c3.2-31.25,4.81-69.27,4.81-114.08c0-45.13-1.42-80.64-4.25-106.55
		c-2.83-25.9-8.59-38.86-17.26-38.86H34.58z M34.58,343.98v336.97h17.99c7.93,0,13.99-14.71,18.17-44.13
		c4.18-29.41,6.27-72.2,6.27-128.36c0-52.15-2.28-92.59-6.83-121.35c-4.55-28.74-11.63-43.12-21.25-43.12H34.58z"/>
	<path class="st1" d="M110.07,0h53.39v19.55c-3.83,0-6.59,4.51-8.26,13.54c-1.68,9.03-2.52,19.05-2.52,30.08
		c0,21.74,2.73,57.67,8.2,107.81l11.37,111.32l13.71-118.34c1.6-17.05,2.62-31.34,3.05-42.87c0.43-11.53,0.64-22.14,0.64-31.84
		c0-18.05-1.17-34.18-3.52-48.39c-2.34-14.2-5.65-21.31-9.91-21.31V0h44.25v19.55c-2.19,0-6.12,9.61-11.78,28.83
		c-5.67,19.23-11.18,49.89-16.53,92.01l-18.35,158.95l29.66,294.34c3.52,32.77,7,55.41,10.46,67.95c3.46,12.54,6.69,18.8,9.7,18.8
		V700h-54.57v-19.56c5.9,0,9.91-3.92,12.01-11.78c2.11-7.85,3.17-18.47,3.17-31.84c0-11.03-0.38-21.72-1.14-32.09
		c-0.76-10.36-1.92-22.57-3.49-36.61l-17.17-170.99l-16.29,147.92c-0.9,8.7-1.57,17.72-2.02,27.08c-0.45,9.36-0.67,21.06-0.67,35.1
		c0,28.75,1.69,48.13,5.07,58.16c3.38,10.03,6.89,15.04,10.52,15.04V700h-49v-19.56c5.47,0,11.64-17.8,18.52-53.4
		c6.88-35.6,13.03-76.3,18.46-122.1l14.01-123.35l-21.63-212.11C131.38,86.58,125.24,40.87,121,32.34
		c-4.24-8.53-7.88-12.79-10.93-12.79V0z"/>
	<path class="st1" d="M318.19,104.93c9.22,69.95,13.83,151.72,13.83,245.31c0,96.49-4.71,178.9-14.13,247.24
		C308.48,665.83,296.8,700,282.85,700c-13.6,0-25.2-34.17-34.81-102.52c-9.61-68.34-14.42-150.75-14.42-247.24
		c0-96.8,4.71-179.38,14.12-247.72C257.16,34.18,268.86,0,282.85,0C297.19,0,308.97,34.98,318.19,104.93z M283.03,19.78
		c-8.6,0-15.45,30.64-20.57,91.91c-5.12,61.27-7.68,140.79-7.68,238.56c0,97.45,2.66,176.81,7.97,238.08
		c5.31,61.27,12.07,91.91,20.28,91.91c8.56,0,15.39-30.63,20.51-91.91c5.12-61.27,7.68-140.62,7.68-238.08
		c0-97.76-2.66-177.29-7.97-238.56C297.93,50.42,291.19,19.78,283.03,19.78z"/>
	<path class="st1" d="M353.71,494.95c2.66-10.44,5.49-33.99,8.5-70.66c3.01-36.66,9.06-145.31,18.17-325.96
		c0.35-8.01,0.57-13.53,0.64-16.57c0.08-3.03,0.12-6.61,0.12-10.74c-0.08-13.6-1.5-26.46-4.28-38.61
		c-2.77-12.14-6.7-18.21-11.78-18.21V0h75.43v14.2c-7.03,0-11.65,8.26-13.86,24.77c-2.21,16.51-3.31,42.61-3.31,78.3v377.68h21.86
		L437.58,700h-1.99c-1.49-96.4-3.74-152.42-6.77-168.08c-3.03-15.66-6.05-23.49-9.06-23.49h-54.1c-3.01,0-6.03,7.83-9.05,23.49
		c-3.03,15.66-5.29,71.68-6.77,168.08h-1.99l-7.62-205.05H353.71z M406.11,494.95V14.2c-8.6,0-14.18,7.83-16.76,23.49
		c-2.58,15.66-4.86,40.97-6.86,75.94c-9.18,175.06-15.09,279.47-17.73,313.21c-2.64,33.75-4.93,56.45-6.89,68.11H406.11z"/>
	<path class="st1" d="M568.75,0v19.55c-7.03,0-11.65,11.37-13.86,34.1c-2.21,22.74-3.31,58.67-3.31,107.81v377.08
		c0,49.14,1.1,85.08,3.31,107.81c2.21,22.74,6.83,34.09,13.86,34.09V700h-51.58v-19.56c7.03,0,11.65-11.36,13.86-34.09
		c2.21-22.73,3.31-58.67,3.31-107.81V357.52h-17.99L487.93,700h-31v-19.56c3.75,0,6.99-3.67,9.73-11.03
		c2.74-7.35,5.22-23.57,7.44-48.64l14.07-168.99c4.61-9.35,8.34-19.3,11.19-29.83c2.85-10.53,7.56-32.01,14.13-64.43h-10.43
		c-9.96,0-18.37-15.88-25.23-47.64c-6.86-31.76-10.29-71.2-10.29-118.34v-22.06c0-42.12,2.49-80.9,7.47-116.33
		C479.98,17.72,488.84,0,501.58,0H568.75z M534.35,18.55h-20.28c-10.75,0-17.92,14.72-21.51,44.13
		c-3.6,29.42-5.39,65.52-5.39,108.31v15.54c0,42.46,1.74,78.48,5.22,108.06c3.48,29.59,10.45,44.38,20.92,44.38h21.04V18.55z"/>
	<path class="st1" d="M739.6,513.38H581.64v-13.45c7.03,0,11.65-7.81,13.86-23.45c2.21-15.63,3.31-72.34,3.31-106.14V111.03
		c0-33.79-1.1-58.5-3.31-74.14c-2.21-15.63-6.83-23.45-13.86-23.45V0h50.99v13.45c-6.64,0-11.07,7.82-13.27,23.45
		c-2.21,15.64-3.31,40.34-3.31,74.14v388.89h37.1V111.03c0-33.79-1.1-58.5-3.31-74.14c-2.21-15.63-6.44-23.45-12.69-23.45V0h49.23
		v13.45c-6.25,0-10.48,7.82-12.69,23.45c-2.21,15.64-3.31,40.34-3.31,74.14v388.89h37.1V111.03c0-33.79-1.1-58.5-3.31-74.14
		c-2.21-15.63-6.63-23.45-13.28-23.45V0h50.99v13.45c-7.03,0-11.65,7.82-13.86,23.45c-2.21,15.64-3.31,40.34-3.31,74.14v259.31
		c0,33.79,1.1,90.51,3.31,106.14c2.21,15.64,6.83,23.45,13.86,23.45v13.45C741.37,611.73,735,621,733,633
		c-5.46,32.79-22.53,46.42-35.54,48.73c-12.27,0-24.88-10.98-37.83-32.93c-12.95-21.96-23.51-32.93-31.68-32.93
		c-6.84,0-12.47,5.63-16.91,16.9c-4.44,11.26-8.18,33.67-11.22,67.24l-1.88-11.03c3.17-55.17,8.31-64.35,15.44-89.52
		c7.13-25.18,14.45-37.76,21.95-37.76c8.95,0,19.97,13.45,33.06,40.34c13.09,26.9,26.06,40.34,38.92,40.34
		c12.27,0,20.58-10.92,24.94-32.76C736.6,587.78,739.05,556.37,739.6,513.38z"/>
	<path class="st1" d="M792.11,611.75c0.51,13.72,1.23,25.24,2.17,34.6c2.19,22.74,6.8,34.09,13.83,34.09V700h-51.58v-19.56
		c7.03,0,11.65-11.36,13.86-34.09c2.21-22.73,3.31-58.67,3.31-107.81V161.46c0-49.14-1.1-85.07-3.31-107.81
		c-2.21-22.73-6.83-34.1-13.86-34.1V0h51.58v19.55c-7.03,0-11.65,11.37-13.86,34.1c-2.21,22.74-3.31,58.67-3.31,107.81v377.08
		c0,17.38,0.14,33.09,0.41,47.13l42.96-486.89c-0.59-18.38-1.43-33.42-2.52-45.13c-2.23-22.73-6.86-34.1-13.89-34.1V0h51.58v19.55
		c-7.03,0-11.65,11.37-13.86,34.1c-2.21,22.74-3.31,58.67-3.31,107.81v377.08c0,49.14,1.1,85.08,3.31,107.81
		c2.21,22.74,6.83,34.09,13.86,34.09V700H817.9v-19.56c7.03,0,11.65-11.36,13.86-34.09c2.21-22.73,3.31-58.67,3.31-107.81V161.46
		c0-12.7-0.08-24.57-0.23-35.6L792.11,611.75z"/>
	<path class="st1" d="M922.64,616.54c0.51,12.97,1.23,23.87,2.17,32.72c2.19,21.5,6.8,32.24,13.83,32.24V700h-51.58v-18.5
		c7.03,0,11.65-10.74,13.86-32.24c2.21-21.5,3.31-55.48,3.31-101.95V190.7c0-46.47-1.1-80.45-3.31-101.96
		c-2.21-21.5-6.83-32.25-13.86-32.25V38h51.58v18.49c-7.03,0-11.65,10.75-13.86,32.25c-2.21,21.5-3.31,55.48-3.31,101.96v356.61
		c0,16.44,0.14,31.3,0.41,44.57l42.96-460.46c-0.59-17.38-1.43-31.61-2.52-42.68c-2.23-21.5-6.86-32.25-13.89-32.25V38H1000v18.49
		c-7.03,0-11.65,10.75-13.86,32.25c-2.21,21.5-3.31,55.48-3.31,101.96v356.61c0,46.47,1.1,80.46,3.31,101.95
		c2.21,21.5,6.83,32.24,13.86,32.24V700h-51.58v-18.5c7.03,0,11.65-10.74,13.86-32.24c2.21-21.5,3.31-55.48,3.31-101.95V190.7
		c0-12.01-0.08-23.24-0.23-33.67L922.64,616.54z M921.87,30.62c-5.08-4.92-7.8-10.39-8.15-16.41c0-4.99,0.99-8.61,2.96-10.85
		c1.97-2.24,4.41-3.36,7.3-3.36c3.79,0.05,6.41,1.34,7.85,3.86c1.45,2.52,2.21,5.66,2.29,9.42c0,5.66-2.34,9.63-7.03,11.89
		c-1.72,0.67-2.58,1.36-2.58,2.09c0.39,1.6,1.94,3.21,4.66,4.83c2.72,1.62,7.49,2.56,14.33,2.82c6.84-0.26,11.61-1.2,14.33-2.82
		c2.72-1.62,4.27-3.23,4.66-4.83c0-0.72-0.86-1.42-2.58-2.09c-4.69-2.27-7.03-6.23-7.03-11.89c0.08-3.76,0.84-6.9,2.29-9.42
		c1.44-2.52,4.06-3.81,7.85-3.86c2.89,0,5.32,1.12,7.3,3.36c1.97,2.24,2.96,5.86,2.96,10.85c-0.35,6.02-3.07,11.5-8.15,16.41
		C960.05,35.54,952.84,38,943.5,38C934.16,38,926.95,35.54,921.87,30.62z"/>
</g>
</svg>
