<?xml version="1.0" encoding="utf-8"?>
<!-- Generator: Adobe Illustrator 24.1.3, SVG Export Plug-In . SVG Version: 6.00 Build 0)  -->
<svg version="1.1" preserveAspectRatio="none" xmlns="http://www.w3.org/2000/svg" xmlns:xlink="http://www.w3.org/1999/xlink" x="0px" y="0px"
	 viewBox="0 0 1000 700" style="enable-background:new 0 0 1000 700;" xml:space="preserve">
<style type="text/css">
	.st0{display:none;}
	.st1{display:inline;}
</style>
<g>
	<path fill='red' d="M62.77,0c9.89,0,17.47,16.63,22.74,49.89c5.28,33.27,7.91,73.8,7.91,121.6c0,46.8-3.24,84.41-9.73,112.82
		c-6.49,28.42-11.82,44.46-16,48.14c8.87,12.71,16,34.18,21.39,64.44c5.39,30.26,8.09,71.95,8.09,125.11
		c0,58.5-3.45,102.79-10.34,132.88C79.93,684.96,72.3,700,63.94,700H0v-19.56c7.03,0,11.65-11.36,13.86-34.09
		c2.21-22.73,3.31-58.67,3.31-107.81V161.46c0-49.14-1.11-85.07-3.31-107.81C11.65,30.92,7.03,19.55,0,19.55V0H62.77z M34.58,17.05
		v306.38h14.95c10.04,0,16.66-15.62,19.87-46.88c3.2-31.25,4.81-69.27,4.81-114.08c0-45.13-1.42-80.64-4.25-106.55
		c-2.83-25.9-8.59-38.86-17.26-38.86H34.58z M34.58,343.98v336.97h17.99c7.93,0,13.99-14.71,18.17-44.13
		c4.18-29.41,6.27-72.2,6.27-128.36c0-52.15-2.28-92.59-6.83-121.35c-4.55-28.74-11.63-43.12-21.25-43.12H34.58z"/>
	<path fill='red' d="M110.07,0h53.39v19.55c-3.83,0-6.59,4.51-8.26,13.54c-1.68,9.03-2.52,19.05-2.52,30.08c0,21.74,2.73,57.67,8.2,107.81
		l11.37,111.32l13.71-118.34c1.6-17.05,2.62-31.34,3.05-42.87c0.43-11.53,0.64-22.14,0.64-31.84c0-18.05-1.17-34.18-3.52-48.39
		c-2.34-14.2-5.65-21.31-9.91-21.31V0h44.25v19.55c-2.19,0-6.12,9.61-11.78,28.83c-5.67,19.23-11.18,49.89-16.53,92.01
		l-18.35,158.95l29.66,294.34c3.52,32.77,7,55.41,10.46,67.95c3.46,12.54,6.69,18.8,9.7,18.8V700h-54.57v-19.56
		c5.9,0,9.91-3.92,12.01-11.78c2.11-7.85,3.17-18.47,3.17-31.84c0-11.03-0.38-21.72-1.14-32.09c-0.76-10.36-1.92-22.57-3.49-36.61
		l-17.17-170.99l-16.29,147.92c-0.9,8.7-1.57,17.72-2.02,27.08c-0.45,9.36-0.67,21.06-0.67,35.1c0,28.75,1.69,48.13,5.07,58.16
		c3.38,10.03,6.89,15.04,10.52,15.04V700h-49v-19.56c5.47,0,11.64-17.8,18.52-53.4c6.88-35.6,13.03-76.3,18.46-122.1l14.01-123.35
		l-21.63-212.11C131.38,86.58,125.24,40.87,121,32.34c-4.24-8.53-7.88-12.79-10.93-12.79V0z"/>
	<path fill='red' d="M318.19,104.93c9.22,69.95,13.83,151.72,13.83,245.31c0,96.49-4.71,178.9-14.13,247.24C308.48,665.83,296.8,700,282.85,700
		c-13.6,0-25.2-34.17-34.81-102.52c-9.61-68.34-14.42-150.75-14.42-247.24c0-96.8,4.71-179.38,14.12-247.72
		C257.16,34.18,268.86,0,282.85,0C297.19,0,308.97,34.98,318.19,104.93z M283.03,19.78c-8.6,0-15.45,30.64-20.57,91.91
		c-5.12,61.27-7.68,140.79-7.68,238.56c0,97.45,2.66,176.81,7.97,238.08c5.31,61.27,12.07,91.91,20.28,91.91
		c8.56,0,15.39-30.63,20.51-91.91c5.12-61.27,7.68-140.62,7.68-238.08c0-97.76-2.66-177.29-7.97-238.56
		C297.93,50.42,291.19,19.78,283.03,19.78z"/>
	<path fill='red' d="M353.71,494.95c2.66-10.44,5.49-33.99,8.5-70.66c3.01-36.66,9.06-145.31,18.17-325.96c0.35-8.01,0.57-13.53,0.64-16.57
		c0.08-3.03,0.12-6.61,0.12-10.74c-0.08-13.6-1.5-26.46-4.28-38.61c-2.77-12.14-6.7-18.21-11.78-18.21V0h75.43v14.2
		c-7.03,0-11.65,8.26-13.86,24.77c-2.21,16.51-3.31,42.61-3.31,78.3v377.68h21.86L437.58,700h-1.99
		c-1.49-96.4-3.74-152.42-6.77-168.08c-3.03-15.66-6.05-23.49-9.06-23.49h-54.1c-3.01,0-6.03,7.83-9.05,23.49
		c-3.03,15.66-5.29,71.68-6.77,168.08h-1.99l-7.62-205.05H353.71z M406.11,494.95V14.2c-8.6,0-14.18,7.83-16.76,23.49
		c-2.58,15.66-4.86,40.97-6.86,75.94c-9.18,175.06-15.09,279.47-17.73,313.21c-2.64,33.75-4.93,56.45-6.89,68.11H406.11z"/>
	<path fill='red' d="M568.75,0v19.55c-7.03,0-11.65,11.37-13.86,34.1c-2.21,22.74-3.31,58.67-3.31,107.81v377.08c0,49.14,1.1,85.08,3.31,107.81
		c2.21,22.74,6.83,34.09,13.86,34.09V700h-51.58v-19.56c7.03,0,11.65-11.36,13.86-34.09c2.21-22.73,3.31-58.67,3.31-107.81V357.52
		h-17.99L487.93,700h-31v-19.56c3.75,0,6.99-3.67,9.73-11.03c2.74-7.35,5.22-23.57,7.44-48.64l14.07-168.99
		c4.61-9.35,8.34-19.3,11.19-29.83c2.85-10.53,7.56-32.01,14.13-64.43h-10.43c-9.96,0-18.37-15.88-25.23-47.64
		c-6.86-31.76-10.29-71.2-10.29-118.34v-22.06c0-42.12,2.49-80.9,7.47-116.33C479.98,17.72,488.84,0,501.58,0H568.75z M534.35,18.55
		h-20.28c-10.75,0-17.92,14.72-21.51,44.13c-3.6,29.42-5.39,65.52-5.39,108.31v15.54c0,42.46,1.74,78.48,5.22,108.06
		c3.48,29.59,10.45,44.38,20.92,44.38h21.04V18.55z"/>
	<path fill='red' d="M739.6,513.38H581.64v-13.45c7.03,0,11.65-7.81,13.86-23.45c2.21-15.63,3.31-72.34,3.31-106.14V111.03
		c0-33.79-1.1-58.5-3.31-74.14c-2.21-15.63-6.83-23.45-13.86-23.45V0h50.99v13.45c-6.64,0-11.07,7.82-13.27,23.45
		c-2.21,15.64-3.31,40.34-3.31,74.14v388.89h37.1V111.03c0-33.79-1.1-58.5-3.31-74.14c-2.21-15.63-6.44-23.45-12.69-23.45V0h49.23
		v13.45c-6.25,0-10.48,7.82-12.69,23.45c-2.21,15.64-3.31,40.34-3.31,74.14v388.89h37.1V111.03c0-33.79-1.1-58.5-3.31-74.14
		c-2.21-15.63-6.63-23.45-13.28-23.45V0h50.99v13.45c-7.03,0-11.65,7.82-13.86,23.45c-2.21,15.64-3.31,40.34-3.31,74.14v259.31
		c0,33.79,1.1,90.51,3.31,106.14c2.21,15.64,6.83,23.45,13.86,23.45v13.45C741.37,611.73,735,621,733,633
		c-5.46,32.79-22.53,46.42-35.54,48.73c-12.27,0-24.88-10.98-37.83-32.93c-12.95-21.96-23.51-32.93-31.68-32.93
		c-6.84,0-12.47,5.63-16.91,16.9c-4.44,11.26-8.18,33.67-11.22,67.24l-1.88-11.03c3.17-55.17,8.31-64.35,15.44-89.52
		c7.13-25.18,14.45-37.76,21.95-37.76c8.95,0,19.97,13.45,33.06,40.34c13.09,26.9,26.06,40.34,38.92,40.34
		c12.27,0,20.58-10.92,24.94-32.76C736.6,587.78,739.05,556.37,739.6,513.38z"/>
	<path fill='red' d="M792.11,611.75c0.51,13.72,1.23,25.24,2.17,34.6c2.19,22.74,6.8,34.09,13.83,34.09V700h-51.58v-19.56
		c7.03,0,11.65-11.36,13.86-34.09c2.21-22.73,3.31-58.67,3.31-107.81V161.46c0-49.14-1.1-85.07-3.31-107.81
		c-2.21-22.73-6.83-34.1-13.86-34.1V0h51.58v19.55c-7.03,0-11.65,11.37-13.86,34.1c-2.21,22.74-3.31,58.67-3.31,107.81v377.08
		c0,17.38,0.14,33.09,0.41,47.13l42.96-486.89c-0.59-18.38-1.43-33.42-2.52-45.13c-2.23-22.73-6.86-34.1-13.89-34.1V0h51.58v19.55
		c-7.03,0-11.65,11.37-13.86,34.1c-2.21,22.74-3.31,58.67-3.31,107.81v377.08c0,49.14,1.1,85.08,3.31,107.81
		c2.21,22.74,6.83,34.09,13.86,34.09V700H817.9v-19.56c7.03,0,11.65-11.36,13.86-34.09c2.21-22.73,3.31-58.67,3.31-107.81V161.46
		c0-12.7-0.08-24.57-0.23-35.6L792.11,611.75z"/>
	<path fill='red' d="M922.64,616.54c0.51,12.97,1.23,23.87,2.17,32.72c2.19,21.5,6.8,32.24,13.83,32.24V700h-51.58v-18.5
		c7.03,0,11.65-10.74,13.86-32.24c2.21-21.5,3.31-55.48,3.31-101.95V190.7c0-46.47-1.1-80.45-3.31-101.96
		c-2.21-21.5-6.83-32.25-13.86-32.25V38h51.58v18.49c-7.03,0-11.65,10.75-13.86,32.25c-2.21,21.5-3.31,55.48-3.31,101.96v356.61
		c0,16.44,0.14,31.3,0.41,44.57l42.96-460.46c-0.59-17.38-1.43-31.61-2.52-42.68c-2.23-21.5-6.86-32.25-13.89-32.25V38H1000v18.49
		c-7.03,0-11.65,10.75-13.86,32.25c-2.21,21.5-3.31,55.48-3.31,101.96v356.61c0,46.47,1.1,80.46,3.31,101.95
		c2.21,21.5,6.83,32.24,13.86,32.24V700h-51.58v-18.5c7.03,0,11.65-10.74,13.86-32.24c2.21-21.5,3.31-55.48,3.31-101.95V190.7
		c0-12.01-0.08-23.24-0.23-33.67L922.64,616.54z M921.87,30.62c-5.08-4.92-7.8-10.39-8.15-16.41c0-4.99,0.99-8.61,2.96-10.85
		c1.97-2.24,4.41-3.36,7.3-3.36c3.79,0.05,6.41,1.34,7.85,3.86c1.45,2.52,2.21,5.66,2.29,9.42c0,5.66-2.34,9.63-7.03,11.89
		c-1.72,0.67-2.58,1.36-2.58,2.09c0.39,1.6,1.94,3.21,4.66,4.83c2.72,1.62,7.49,2.56,14.33,2.82c6.84-0.26,11.61-1.2,14.33-2.82
		c2.72-1.62,4.27-3.23,4.66-4.83c0-0.72-0.86-1.42-2.58-2.09c-4.69-2.27-7.03-6.23-7.03-11.89c0.08-3.76,0.84-6.9,2.29-9.42
		c1.44-2.52,4.06-3.81,7.85-3.86c2.89,0,5.32,1.12,7.3,3.36c1.97,2.24,2.96,5.86,2.96,10.85c-0.35,6.02-3.07,11.5-8.15,16.41
		C960.05,35.54,952.84,38,943.5,38C934.16,38,926.95,35.54,921.87,30.62z"/>
</g>
</svg>
