<?xml version="1.0" encoding="utf-8"?>
<!-- Generator: Adobe Illustrator 24.1.3, SVG Export Plug-In . SVG Version: 6.00 Build 0)  -->
<svg version="1.1" id="Слой_1" xmlns="http://www.w3.org/2000/svg" xmlns:xlink="http://www.w3.org/1999/xlink" x="0px" y="0px"
	 viewBox="0 0 1000 700" style="enable-background:new 0 0 1000 700;" xml:space="preserve">
<style type="text/css">
	.st0{display:none;}
	.st1{display:inline;}
	.st2{font-family:'Engry';}
	.st3{font-size:140.3942px;}
</style>
<g class="st0">
	<path class="st1" d="M133.57,106.16c14.56,69.81,21.85,151.41,21.85,244.81c0,96.29-7.44,178.53-22.31,246.73
		C118.24,665.9,99.79,700,77.76,700c-21.48,0-39.8-34.1-54.99-102.3C7.59,529.5,0,447.25,0,350.96c0-96.6,7.44-179.01,22.31-247.21
		C37.18,35.55,55.66,1.44,77.76,1.44C100.4,1.44,119.01,36.35,133.57,106.16z M78.03,21.18c-13.58,0-24.41,30.57-32.49,91.72
		c-8.08,61.14-12.13,140.5-12.13,238.06c0,97.25,4.2,176.44,12.59,237.58c8.39,61.15,19.07,91.72,32.03,91.72
		c13.51,0,24.31-30.57,32.4-91.72c8.08-61.14,12.13-140.33,12.13-237.58c0-97.56-4.2-176.92-12.59-238.06
		C101.58,51.76,90.93,21.18,78.03,21.18z"/>
	<path class="st1" d="M249.84,0c13.95,0,24.58,13.64,31.89,40.92c7.31,27.28,12.11,40.92,14.39,40.92c4.01,0,9.44-23.59,16.29-70.77
		h3.42l2.59,322.08h-2.87c-6.54-110.4-15.47-190.56-26.8-240.48c-11.32-49.9-23.16-74.86-35.5-74.86
		c-13.39,0-22.85,28.97-28.37,86.9c-5.52,57.94-8.28,141.62-8.28,251.06c0,129.02,3.96,215.36,11.89,259.01
		c7.93,43.65,17.97,65.48,30.13,65.48c15.8,0,28.65-23.59,38.55-70.77c9.9-47.18,16.34-100.93,19.3-161.28h3.8
		c-2.65,62.91-9.29,120.6-19.9,173.08C289.76,673.76,275.32,700,257.06,700c-20.67,0-38.15-36.03-52.44-108.08
		c-14.29-72.05-21.43-153.34-21.43-243.85c0-93.07,6.93-174.35,20.78-243.85C217.82,34.75,233.11,0,249.84,0z"/>
	<path class="st1" d="M432.01,538.54c0,49.14,1.74,85.08,5.23,107.81c3.49,22.74,10.78,34.09,21.89,34.09h15.83V700H361.84v-19.56
		h15.83c11.11,0,18.4-11.36,21.89-34.09c3.49-22.73,5.23-58.67,5.23-107.81V18.55h-6.02c-16.35,0-29.02,35.1-38,105.3
		c-8.98,70.2-13.99,147.59-15.04,232.17h-3.43V0h152.18v356.02h-3.42c-1.05-84.57-6.06-161.97-15.04-232.17
		c-8.98-70.2-21.65-105.3-38-105.3h-6.02V538.54z"/>
	<path class="st1" d="M577.15,0h4.07l54.06,622.77c2.47,23.95,5.74,39.6,9.81,46.98s8.39,11.07,12.96,11.07V700H582.8v-19.19
		c10.67,0,17.32-3.69,19.95-11.07c2.62-7.38,3.93-18.94,3.93-34.68c-0.12-16.73-3.92-66.73-11.39-150.03h-53.87l-5.65,67.39
		c-0.62,8.53-0.93,21.98-0.93,40.34c0.56,30.18,2.58,52.39,6.06,66.66c3.49,14.26,7.67,21.39,12.54,21.39V700h-53.04v-19.19
		c15.06,0,28.2-77.55,39.43-232.68L577.15,0z M542.72,466.83h50.73L567.99,164.3L542.72,466.83z"/>
	<path class="st1" d="M773.4,0c15.61,0,27.58,16.63,35.92,49.89c8.33,33.27,12.5,73.8,12.5,121.6c0,46.8-5.12,84.41-15.37,112.82
		c-10.24,28.42-18.67,44.46-25.27,48.14c14.01,12.71,25.27,34.18,33.79,64.44c8.52,30.26,12.77,71.95,12.77,125.11
		c0,58.5-5.45,102.79-16.34,132.88C800.5,684.96,788.45,700,775.25,700H674.26v-19.56c11.11,0,18.4-11.36,21.89-34.09
		c3.49-22.73,5.23-58.67,5.23-107.81V161.46c0-49.14-1.74-85.07-5.23-107.81c-3.49-22.73-10.78-34.1-21.89-34.1V0H773.4z
		 M728.87,17.05v306.38h23.6c15.86,0,26.32-15.62,31.38-46.88c5.06-31.25,7.59-69.27,7.59-114.08c0-45.13-2.24-80.64-6.71-106.55
		c-4.48-25.9-13.56-38.86-27.26-38.86H728.87z M728.87,343.98v336.97h28.42c12.53,0,22.09-14.71,28.7-44.13
		c6.6-29.41,9.91-72.2,9.91-128.36c0-52.15-3.6-92.59-10.78-121.35c-7.19-28.74-18.38-43.12-33.56-43.12H728.87z"/>
	<path class="st1" d="M948.44,313.39c13.82,0,25.87,16.38,36.15,49.14c10.28,32.77,15.41,77.39,15.41,133.88v22.07
		c0,50.48-4.77,93.35-14.3,128.61c-9.54,35.27-25.57,52.9-48.09,52.9h-85.44v-19.56c11.11,0,18.41-11.36,21.89-34.09
		c3.49-22.73,5.23-58.67,5.23-107.81V161.46c0-49.14-1.74-85.07-5.23-107.81c-3.49-22.73-10.78-34.1-21.89-34.1V0h85.9v20.56
		c-14.5,0-23.45,11.2-26.84,33.59c-3.39,22.4-5.09,58.17-5.09,107.31v151.93H948.44z M930.21,681.45
		c14.81,0,25.04-14.46,30.69-43.37c5.65-28.92,8.47-67.61,8.47-116.08v-27.58c0-41.12-2.64-78.14-7.91-111.07
		c-5.28-32.92-16.8-49.39-34.57-49.39h-20.74v347.5H930.21z"/>
</g>
<g class="st0">
	<path class="st1" d="M42.43,354.51v184.03c0,49.14,1.36,85.08,4.08,107.81c2.72,22.74,8.42,34.09,17.09,34.09V700H0v-19.56
		c8.67,0,14.37-11.36,17.09-34.09c2.72-22.73,4.08-58.67,4.08-107.81V161.46c0-49.14-1.36-85.07-4.08-107.81
		C14.37,30.92,8.67,19.55,0,19.55V0h63.6v19.55c-8.67,0-14.37,11.37-17.09,34.1c-2.72,22.74-4.08,58.67-4.08,107.81v172.49h54.42
		V161.46c0-49.14-1.36-85.07-4.08-107.81c-2.72-22.73-8.42-34.1-17.09-34.1V0h63.6v19.55c-8.67,0-14.37,11.37-17.09,34.1
		c-2.72,22.74-4.08,58.67-4.08,107.81v377.08c0,49.14,1.36,85.08,4.08,107.81c2.72,22.74,8.42,34.09,17.09,34.09V700h-63.6v-19.56
		c8.67,0,14.37-11.36,17.09-34.09c2.72-22.73,4.08-58.67,4.08-107.81V354.51H42.43z"/>
	<path class="st1" d="M211.91,0h3.18l42.21,622.77c1.93,23.95,4.48,39.6,7.66,46.98c3.18,7.38,6.55,11.07,10.12,11.07V700h-58.76
		v-19.19c8.34,0,13.53-3.69,15.58-11.07c2.05-7.38,3.07-18.94,3.07-34.68c-0.1-16.73-3.06-66.73-8.89-150.04h-42.06l-4.41,67.39
		c-0.48,8.53-0.72,21.98-0.72,40.34c0.43,30.18,2.01,52.39,4.73,66.66c2.72,14.26,5.99,21.39,9.79,21.39V700h-41.41v-19.19
		c11.76,0,22.02-77.55,30.79-232.68L211.91,0z M185.02,466.83h39.61L204.76,164.3L185.02,466.83z"/>
	<path class="st1" d="M296.4,494.95c3.28-10.44,6.77-33.99,10.48-70.66c3.71-36.66,11.18-145.31,22.41-325.96
		c0.43-8.01,0.7-13.53,0.79-16.57c0.1-3.03,0.14-6.61,0.14-10.74c-0.1-13.6-1.86-26.47-5.28-38.61
		c-3.42-12.14-8.26-18.21-14.53-18.21V0h93.02v14.2c-8.67,0-14.37,8.26-17.09,24.77c-2.72,16.51-4.08,42.61-4.08,78.3v377.68h26.96
		L399.83,700h-2.46c-1.83-96.4-4.61-152.42-8.35-168.08c-3.73-15.66-7.46-23.49-11.17-23.49h-66.71c-3.71,0-7.43,7.83-11.17,23.49
		c-3.73,15.66-6.52,71.68-8.35,168.08h-2.46l-9.4-205.05H296.4z M361.01,494.95V14.2c-10.6,0-17.49,7.83-20.67,23.49
		s-6,40.98-8.46,75.94c-11.32,175.06-18.61,279.47-21.86,313.22c-3.25,33.75-6.08,56.45-8.49,68.11H361.01z"/>
	<path class="st1" d="M469.79,368.05v312.89h9.76c20.14,0,33.79-25.24,40.94-75.72c7.15-50.47,11.86-115.33,14.13-194.56h2.96V700
		H427.29v-19.56c8.67,0,14.37-11.36,17.09-34.09c2.72-22.73,4.08-58.67,4.08-107.81V161.46c0-49.14-1.36-85.07-4.08-107.81
		c-2.72-22.73-8.42-34.1-17.09-34.1V0h107.62v272.28h-2.46c-4.24-105.96-9.67-174.75-16.3-206.34
		c-6.63-31.59-17.82-47.39-33.57-47.39h-12.79V349c9.64,0,17.01-17.55,22.12-52.65c5.11-35.1,8.09-91.09,8.96-167.98h2.67v460.31
		h-2.67C500,511.8,497.01,455.8,491.9,420.7C486.8,385.6,479.43,368.05,469.79,368.05z"/>
	<path class="st1" d="M651.85,323.08h9.61c1.78,0,3.71-3.5,5.78-10.52c2.07-7.02,4-20.15,5.78-39.41
		c2.02-28.06,3.64-62.66,4.84-103.78c1.2-51.88,3.31-93.08,6.32-123.6C687.2,15.26,692.08,0,698.83,0
		c11.23,4.57,16.84,36.07,16.84,94.48c-0.19,57.45-4.26,86.97-12.21,88.6c-7.71,0-11.85-22.52-12.43-67.56
		c0-43.72,2.22-70,6.65-78.81c1.64-2.61,2.46-5.38,2.46-8.32c0-4.57-0.87-7.02-2.6-7.35c-5.73,1.31-9.73,17.14-12,47.49
		c-2.27,30.35-3.88,65.27-4.84,104.75c-1.45,50.26-3.25,88.44-5.42,114.54c-1.93,17.62-3.7,29.62-5.31,35.98
		c-1.61,6.36-2.81,10.69-3.58,12.97c0.77,6.53,3.14,13.14,7.12,19.82c3.98,6.69,8.97,11.35,15,13.96l21.1,252.09
		c2.5,24.48,5.44,40.31,8.82,47.48c3.37,7.18,7.37,10.77,12,10.77V700h-38.96l-28.55-356.85h-11.06v199.24
		c0,47.97,1.36,83.05,4.08,105.24c2.72,22.2,8.42,33.28,17.09,33.28V700h-63.6v-19.09c8.67,0,14.37-11.09,17.09-33.28
		c2.72-22.19,4.08-57.27,4.08-105.24V343.15h-11.06L590.99,700h-38.96v-19.09c4.63,0,8.62-3.58,12-10.77
		c3.37-7.18,6.31-23.01,8.82-47.48l21.1-252.09c6.02-2.61,11.02-7.27,15-13.96c3.98-6.68,6.35-13.29,7.12-19.82
		c-0.77-2.28-1.96-6.61-3.58-12.97c-1.62-6.37-3.39-18.36-5.31-35.98c-2.17-26.11-3.98-64.29-5.42-114.54
		c-0.96-39.48-2.58-74.41-4.84-104.75c-2.27-30.35-6.26-46.18-12-47.49c-1.73,0.33-2.6,2.78-2.6,7.35c0,2.94,0.82,5.71,2.46,8.32
		c4.43,8.81,6.65,35.08,6.65,78.81c-0.58,45.04-4.72,67.56-12.43,67.56c-7.95-1.63-12.02-31.16-12.21-88.6
		c0-58.41,5.61-89.9,16.84-94.48c6.74,0,11.62,15.26,14.64,45.77c3.01,30.52,5.12,71.71,6.32,123.6
		c1.2,41.12,2.82,75.72,4.84,103.78c1.78,19.26,3.71,32.39,5.78,39.41c2.07,7.02,4,10.52,5.78,10.52h9.61V174.26
		c0-47.97-1.36-83.05-4.08-105.24c-2.72-22.19-8.42-33.29-17.09-33.29V16.65h63.6v19.09c-8.67,0-14.37,11.1-17.09,33.29
		c-2.72,22.2-4.08,57.27-4.08,105.24V323.08z"/>
	<path class="st1" d="M753.54,494.95c3.28-10.44,6.77-33.99,10.48-70.66c3.71-36.66,11.18-145.31,22.41-325.96
		c0.43-8.01,0.7-13.53,0.79-16.57c0.1-3.03,0.14-6.61,0.14-10.74c-0.1-13.6-1.86-26.47-5.28-38.61
		c-3.42-12.14-8.26-18.21-14.53-18.21V0h93.02v14.2c-8.67,0-14.37,8.26-17.09,24.77c-2.72,16.51-4.08,42.61-4.08,78.3v377.68h26.96
		L856.97,700h-2.46c-1.83-96.4-4.61-152.42-8.35-168.08c-3.73-15.66-7.46-23.49-11.17-23.49h-66.71c-3.71,0-7.43,7.83-11.17,23.49
		c-3.73,15.66-6.52,71.68-8.35,168.08h-2.46l-9.4-205.05H753.54z M818.15,494.95V14.2c-10.6,0-17.49,7.83-20.67,23.49
		c-3.18,15.66-6,40.98-8.46,75.94c-11.32,175.06-18.61,279.47-21.86,313.22c-3.25,33.75-6.08,56.45-8.49,68.11H818.15z"/>
	<path class="st1" d="M945.14,550.49l-45.1-440.69c-2.94-27.77-6.29-49.83-10.05-66.18c-3.76-16.33-8.02-24.51-12.79-24.51V0h61.36
		v19.11c-6.6,0-11.06,3.85-13.37,11.52c-2.31,7.68-3.54,18.23-3.69,31.62c0,13.41,0.59,27.21,1.77,41.42
		c1.18,14.22,2.9,31.12,5.17,50.73l26.74,247.55l17.42-248.04c0.87-9.8,1.3-25.98,1.3-48.53c0-27.12-1.58-48.28-4.73-63.48
		c-3.16-15.2-6.45-22.79-9.87-22.79V0H1000v19.11c-4.92,0-9.49,13.9-13.73,41.68s-7.61,59.64-10.12,95.59l-28.62,419.12
		c-2.99,44.78-5.99,76.72-9,95.84c-3.01,19.11-7.02,28.67-12.03,28.67c-6.6,0-11.31-9.15-14.13-27.45
		c-2.82-18.3-4.25-42.48-4.3-72.55c0.14-27.12,1.18-49.1,3.11-65.93c1.93-16.83,4.77-25.25,8.53-25.25c4.19,0,7.38,7.93,9.58,23.78
		c2.19,15.85,3.29,36.2,3.29,61.03c-0.1,20.91-0.82,35.95-2.17,45.1c-1.35,9.15-2.8,15.85-4.34,20.1c-0.34,0.98-0.51,3.43-0.51,7.35
		c0,3.92,0.3,6.78,0.9,8.58c0.6,1.8,1.38,2.7,2.35,2.7c2.6-1.96,5.16-10.7,7.66-26.22C938.97,635.71,941.87,602.13,945.14,550.49z"
		/>
</g>
<g class="st0">
	<path class="st1" d="M142.78,1c22.49,0,39.73,16.59,51.73,49.75c12,33.17,18,73.59,18,121.25c0,46.67-7.38,84.17-22.13,112.5
		c-14.75,28.34-26.89,44.34-36.4,48c20.17,12.67,36.4,34.09,48.66,64.25c12.27,30.17,18.4,71.75,18.4,124.75
		c0,58.34-7.85,102.5-23.53,132.5c-15.69,30-33.04,45-52.06,45H0v-19.5c16,0,26.51-11.33,31.53-34c5.02-22.66,7.53-58.5,7.53-107.5
		V162c0-49-2.51-84.83-7.53-107.5C26.51,31.83,16,20.5,0,20.5V1H142.78z M78.66,18v305.5h33.99c22.84,0,37.91-15.58,45.19-46.75
		c7.29-31.16,10.93-69.08,10.93-113.75c0-45-3.22-80.41-9.66-106.25C152.67,30.92,139.58,18,119.85,18H78.66z M78.66,344v336h40.93
		c18.04,0,31.82-14.67,41.33-44c9.51-29.32,14.26-72,14.26-128c0-52-5.18-92.33-15.53-121c-10.36-28.66-26.46-43-48.33-43H78.66z"/>
	<path class="st1" d="M350.35,0.96c20.08,0,35.4,13.63,45.93,40.87c10.53,27.24,17.44,40.86,20.73,40.86
		c5.78,0,13.6-23.56,23.46-70.67h4.93l3.73,321.64h-4.13c-9.42-110.25-22.29-190.3-38.59-240.14
		c-16.31-49.84-33.35-74.76-51.13-74.76c-19.29,0-32.91,28.93-40.86,86.78c-7.96,57.86-11.93,141.43-11.93,250.72
		c0,128.85,5.71,215.07,17.13,258.65c11.42,43.59,25.88,65.39,43.39,65.39c22.75,0,41.26-23.56,55.53-70.67
		c14.26-47.11,23.53-100.79,27.8-161.06h5.47c-3.82,62.82-13.38,120.43-28.66,172.84c-15.29,52.4-36.08,78.6-62.39,78.6
		c-29.78,0-54.95-35.98-75.52-107.93c-20.58-71.95-30.86-153.13-30.86-243.51c0-92.95,9.98-174.11,29.93-243.51
		C304.25,35.66,326.27,0.96,350.35,0.96z"/>
	<path class="st1" d="M730.17,1v19.5c-16,0-26.51,11.34-31.53,34c-5.02,22.67-7.53,58.5-7.53,107.5v376c0,49,2.51,84.83,7.53,107.5
		c5.02,22.67,15.53,34,31.53,34V699H612.85v-19.5c16,0,26.51-11.33,31.53-34c5.02-22.66,7.53-58.5,7.53-107.5V357.5h-40.93
		L546.33,699H475.8v-19.5c8.53,0,15.91-3.66,22.13-11c6.22-7.33,11.87-23.5,16.93-48.5l32-168.5c10.49-9.32,18.97-19.25,25.46-29.75
		c6.49-10.5,17.2-31.91,32.13-64.25h-23.73c-22.66,0-41.79-15.83-57.39-47.5c-15.6-31.66-23.4-71-23.4-118v-22
		c0-42,5.67-80.67,17-116c11.33-35.33,31.48-53,60.46-53H730.17z M651.91,19.5h-46.13c-24.44,0-40.75,14.67-48.93,44
		c-8.18,29.34-12.26,65.34-12.26,108V187c0,42.34,3.95,78.25,11.87,107.75c7.91,29.5,23.77,44.25,47.59,44.25h47.86V19.5z"/>
	<path class="st1" d="M875.48,342.66h-31.06v184.28c0,47.9,2.51,85.38,7.53,112.42c5.02,27.05,15.53,40.57,31.53,40.57V699H766.16
		v-19.07c16,0,26.51-11.07,31.53-33.24c5.02-22.16,7.53-57.19,7.53-105.09V174.02c0-47.9-2.51-82.93-7.53-105.1
		c-5.02-22.16-15.53-33.24-31.53-33.24V16.62h117.32v19.06c-16,0-26.51,11.08-31.53,33.24c-5.02,22.16-7.53,57.19-7.53,105.1v148.6
		h28.4c3.29,0,6.84-3.5,10.67-10.51c3.82-7.01,7.38-20.12,10.67-39.35c3.73-28.02,6.71-62.57,8.93-103.63
		c2.22-51.81,6.11-92.95,11.66-123.43C920.3,15.24,929.3,0,941.74,0c20.71,4.57,31.06,36.01,31.06,94.34
		c-0.36,57.36-7.87,86.85-22.53,88.48c-14.22,0-21.86-22.48-22.93-67.46c0-43.66,4.09-69.9,12.26-78.7c3.02-2.6,4.54-5.38,4.54-8.31
		c0-4.56-1.6-7-4.8-7.33c-10.58,1.31-17.95,17.11-22.13,47.42c-4.18,30.3-7.16,65.18-8.93,104.6c-2.67,50.19-6,88.31-10,114.38
		c-3.56,17.6-6.82,29.57-9.8,35.93c-2.98,6.35-5.18,10.68-6.6,12.96c1.42,6.52,5.8,13.12,13.13,19.79
		c7.33,6.68,16.55,11.33,27.66,13.93l38.93,251.74c4.62,24.44,10.04,40.25,16.27,47.41c6.22,7.17,13.6,10.75,22.13,10.75V699h-71.86
		L875.48,342.66z"/>
</g>
<g>
	<path d="M90.96,0.37c19.03,0,33.54,13.64,43.52,40.9c9.98,27.27,16.53,40.9,19.64,40.9c5.47,0,12.89-23.58,22.23-70.73h4.67
		l3.54,321.91h-3.92C171.72,223,159.53,142.88,144.08,93c-15.45-49.88-31.6-74.82-48.45-74.82c-18.28,0-31.18,28.95-38.72,86.85
		c-7.54,57.9-11.31,141.55-11.31,250.93c0,128.96,5.41,215.25,16.23,258.87c10.82,43.63,24.53,65.44,41.12,65.44
		c21.56,0,39.1-23.58,52.61-70.73s22.3-100.88,26.34-161.19h5.18c-3.62,62.88-12.68,120.53-27.16,172.98
		C145.44,673.77,125.74,700,100.81,700c-28.21,0-52.07-36.01-71.56-108.02C9.75,519.96,0,438.72,0,348.26
		C0,255.24,9.45,174,28.36,104.55C47.27,35.1,68.13,0.37,90.96,0.37z"/>
	<path d="M324.28,355.07h-37.77v177.05c0,47.28,2.17,81.85,6.51,103.72c4.34,21.88,13.66,32.8,27.98,32.8v18.82H212.35v-18.82
		c15.16,0,25.12-10.93,29.88-32.8c4.76-21.87,7.14-56.44,7.14-103.72V169.33c0-47.28-2.38-81.85-7.14-103.72
		c-4.76-21.87-14.72-32.81-29.88-32.81V13.99H321v18.81c-14.32,0-23.64,10.94-27.98,32.81c-4.34,21.88-6.51,56.44-6.51,103.72
		v165.95h37.9c0.84-90.37,9.9-168.04,27.16-233.01C369.76,34.09,393.93,0,424.08,0c30.91,0,56.3,34.98,76.18,104.93
		c19.87,69.95,29.81,151.72,29.81,245.31c0,96.49-10.15,178.9-30.44,247.24C479.32,665.83,454.14,700,424.08,700
		c-29.31,0-53.27-34.25-71.88-102.76C333.92,530.35,324.62,449.62,324.28,355.07z M424.46,19.78c-18.53,0-33.31,30.64-44.34,91.91
		c-11.03,61.27-16.55,140.79-16.55,238.56c0,97.45,5.73,176.81,17.18,238.08c11.45,61.27,26.02,91.91,43.71,91.91
		c18.44,0,33.18-30.63,44.21-91.91c11.03-61.27,16.55-140.62,16.55-238.08c0-97.76-5.73-177.29-17.18-238.56
		C456.59,50.42,442.06,19.78,424.46,19.78z"/>
	<path d="M571.75,494.95c5.73-10.44,11.83-33.99,18.32-70.66c6.48-36.66,19.54-145.31,39.16-325.96c0.76-8.01,1.22-13.53,1.39-16.57
		c0.17-3.03,0.25-6.61,0.25-10.74c-0.17-13.6-3.24-26.46-9.22-38.61c-5.98-12.14-14.44-18.21-25.39-18.21V0h162.58v14.2
		c-15.16,0-25.12,8.26-29.88,24.77c-4.76,16.51-7.14,42.61-7.14,78.3v377.68h47.12L752.53,700h-4.29
		c-3.2-96.4-8.06-152.42-14.59-168.08c-6.53-15.66-13.03-23.49-19.52-23.49h-116.6c-6.49,0-12.99,7.83-19.52,23.49
		c-6.53,15.66-11.39,71.68-14.59,168.08h-4.29L542.7,494.95H571.75z M684.69,494.95V14.2c-18.53,0-30.57,7.83-36.13,23.49
		c-5.56,15.66-10.49,40.97-14.78,75.94c-19.79,175.06-32.53,279.47-38.21,313.21c-5.68,33.75-10.63,56.45-14.84,68.11H684.69z"/>
	<path d="M889.59,0h5.56l73.77,622.77c3.37,23.95,7.83,39.6,13.39,46.98c5.56,7.38,11.45,11.07,17.69,11.07V700H897.3v-19.19
		c14.57,0,23.64-3.69,27.22-11.07c3.58-7.38,5.37-18.94,5.37-34.68c-0.17-16.73-5.35-66.73-15.54-150.03h-73.52l-7.71,67.39
		c-0.84,8.53-1.26,21.98-1.26,40.34c0.76,30.18,3.52,52.39,8.27,66.66c4.76,14.26,10.46,21.39,17.12,21.39V700h-72.39v-19.19
		c20.55,0,38.49-77.55,53.82-232.68L889.59,0z M842.6,466.83h69.23L877.08,164.3L842.6,466.83z"/>
</g>
<text transform="matrix(1 0 0 1 480 179.2656)" class="st0 st2 st3">ВХОДЯЩИЙ</text>
</svg>
