<?xml version="1.0" encoding="utf-8"?>
<!-- Generator: Adobe Illustrator 24.1.3, SVG Export Plug-In . SVG Version: 6.00 Build 0)  -->
<svg version="1.1" id="Слой_1" xmlns="http://www.w3.org/2000/svg" xmlns:xlink="http://www.w3.org/1999/xlink" x="0px" y="0px"
	 viewBox="0 0 1000 700" style="enable-background:new 0 0 1000 700;" xml:space="preserve">
<style type="text/css">
	.st0{display:none;}
	.st1{display:inline;}
	.st2{font-family:'Engry';}
	.st3{font-size:140.3942px;}
</style>
<g class="st0">
	<path class="st1" d="M133.57,106.16c14.56,69.81,21.85,151.41,21.85,244.81c0,96.29-7.44,178.53-22.31,246.73
		C118.24,665.9,99.79,700,77.76,700c-21.48,0-39.8-34.1-54.99-102.3C7.59,529.5,0,447.25,0,350.96c0-96.6,7.44-179.01,22.31-247.21
		C37.18,35.55,55.66,1.44,77.76,1.44C100.4,1.44,119.01,36.35,133.57,106.16z M78.03,21.18c-13.58,0-24.41,30.57-32.49,91.72
		c-8.08,61.14-12.13,140.5-12.13,238.06c0,97.25,4.2,176.44,12.59,237.58c8.39,61.15,19.07,91.72,32.03,91.72
		c13.51,0,24.31-30.57,32.4-91.72c8.08-61.14,12.13-140.33,12.13-237.58c0-97.56-4.2-176.92-12.59-238.06
		C101.58,51.76,90.93,21.18,78.03,21.18z"/>
	<path class="st1" d="M249.84,0c13.95,0,24.58,13.64,31.89,40.92c7.31,27.28,12.11,40.92,14.39,40.92c4.01,0,9.44-23.59,16.29-70.77
		h3.42l2.59,322.08h-2.87c-6.54-110.4-15.47-190.56-26.8-240.48c-11.32-49.9-23.16-74.86-35.5-74.86
		c-13.39,0-22.85,28.97-28.37,86.9c-5.52,57.94-8.28,141.62-8.28,251.06c0,129.02,3.96,215.36,11.89,259.01
		c7.93,43.65,17.97,65.48,30.13,65.48c15.8,0,28.65-23.59,38.55-70.77c9.9-47.18,16.34-100.93,19.3-161.28h3.8
		c-2.65,62.91-9.29,120.6-19.9,173.08C289.76,673.76,275.32,700,257.06,700c-20.67,0-38.15-36.03-52.44-108.08
		c-14.29-72.05-21.43-153.34-21.43-243.85c0-93.07,6.93-174.35,20.78-243.85C217.82,34.75,233.11,0,249.84,0z"/>
	<path class="st1" d="M432.01,538.54c0,49.14,1.74,85.08,5.23,107.81c3.49,22.74,10.78,34.09,21.89,34.09h15.83V700H361.84v-19.56
		h15.83c11.11,0,18.4-11.36,21.89-34.09c3.49-22.73,5.23-58.67,5.23-107.81V18.55h-6.02c-16.35,0-29.02,35.1-38,105.3
		c-8.98,70.2-13.99,147.59-15.04,232.17h-3.43V0h152.18v356.02h-3.42c-1.05-84.57-6.06-161.97-15.04-232.17
		c-8.98-70.2-21.65-105.3-38-105.3h-6.02V538.54z"/>
	<path class="st1" d="M577.15,0h4.07l54.06,622.77c2.47,23.95,5.74,39.6,9.81,46.98s8.39,11.07,12.96,11.07V700H582.8v-19.19
		c10.67,0,17.32-3.69,19.95-11.07c2.62-7.38,3.93-18.94,3.93-34.68c-0.12-16.73-3.92-66.73-11.39-150.03h-53.87l-5.65,67.39
		c-0.62,8.53-0.93,21.98-0.93,40.34c0.56,30.18,2.58,52.39,6.06,66.66c3.49,14.26,7.67,21.39,12.54,21.39V700h-53.04v-19.19
		c15.06,0,28.2-77.55,39.43-232.68L577.15,0z M542.72,466.83h50.73L567.99,164.3L542.72,466.83z"/>
	<path class="st1" d="M773.4,0c15.61,0,27.58,16.63,35.92,49.89c8.33,33.27,12.5,73.8,12.5,121.6c0,46.8-5.12,84.41-15.37,112.82
		c-10.24,28.42-18.67,44.46-25.27,48.14c14.01,12.71,25.27,34.18,33.79,64.44c8.52,30.26,12.77,71.95,12.77,125.11
		c0,58.5-5.45,102.79-16.34,132.88C800.5,684.96,788.45,700,775.25,700H674.26v-19.56c11.11,0,18.4-11.36,21.89-34.09
		c3.49-22.73,5.23-58.67,5.23-107.81V161.46c0-49.14-1.74-85.07-5.23-107.81c-3.49-22.73-10.78-34.1-21.89-34.1V0H773.4z
		 M728.87,17.05v306.38h23.6c15.86,0,26.32-15.62,31.38-46.88c5.06-31.25,7.59-69.27,7.59-114.08c0-45.13-2.24-80.64-6.71-106.55
		c-4.48-25.9-13.56-38.86-27.26-38.86H728.87z M728.87,343.98v336.97h28.42c12.53,0,22.09-14.71,28.7-44.13
		c6.6-29.41,9.91-72.2,9.91-128.36c0-52.15-3.6-92.59-10.78-121.35c-7.19-28.74-18.38-43.12-33.56-43.12H728.87z"/>
	<path class="st1" d="M948.44,313.39c13.82,0,25.87,16.38,36.15,49.14c10.28,32.77,15.41,77.39,15.41,133.88v22.07
		c0,50.48-4.77,93.35-14.3,128.61c-9.54,35.27-25.57,52.9-48.09,52.9h-85.44v-19.56c11.11,0,18.41-11.36,21.89-34.09
		c3.49-22.73,5.23-58.67,5.23-107.81V161.46c0-49.14-1.74-85.07-5.23-107.81c-3.49-22.73-10.78-34.1-21.89-34.1V0h85.9v20.56
		c-14.5,0-23.45,11.2-26.84,33.59c-3.39,22.4-5.09,58.17-5.09,107.31v151.93H948.44z M930.21,681.45
		c14.81,0,25.04-14.46,30.69-43.37c5.65-28.92,8.47-67.61,8.47-116.08v-27.58c0-41.12-2.64-78.14-7.91-111.07
		c-5.28-32.92-16.8-49.39-34.57-49.39h-20.74v347.5H930.21z"/>
</g>
<g>
	<path d="M42.43,354.51v184.03c0,49.14,1.36,85.08,4.08,107.81c2.72,22.74,8.42,34.09,17.09,34.09V700H0v-19.56
		c8.67,0,14.37-11.36,17.09-34.09c2.72-22.73,4.08-58.67,4.08-107.81V161.46c0-49.14-1.36-85.07-4.08-107.81
		C14.37,30.92,8.67,19.55,0,19.55V0h63.6v19.55c-8.67,0-14.37,11.37-17.09,34.1c-2.72,22.74-4.08,58.67-4.08,107.81v172.49h54.42
		V161.46c0-49.14-1.36-85.07-4.08-107.81c-2.72-22.73-8.42-34.1-17.09-34.1V0h63.6v19.55c-8.67,0-14.37,11.37-17.09,34.1
		c-2.72,22.74-4.08,58.67-4.08,107.81v377.08c0,49.14,1.36,85.08,4.08,107.81c2.72,22.74,8.42,34.09,17.09,34.09V700h-63.6v-19.56
		c8.67,0,14.37-11.36,17.09-34.09c2.72-22.73,4.08-58.67,4.08-107.81V354.51H42.43z"/>
	<path d="M211.91,0h3.18l42.21,622.77c1.93,23.95,4.48,39.6,7.66,46.98c3.18,7.38,6.55,11.07,10.12,11.07V700h-58.76v-19.19
		c8.34,0,13.53-3.69,15.58-11.07c2.05-7.38,3.07-18.94,3.07-34.68c-0.1-16.73-3.06-66.73-8.89-150.04h-42.06l-4.41,67.39
		c-0.48,8.53-0.72,21.98-0.72,40.34c0.43,30.18,2.01,52.39,4.73,66.66c2.72,14.26,5.99,21.39,9.79,21.39V700h-41.41v-19.19
		c11.76,0,22.02-77.55,30.79-232.68L211.91,0z M185.02,466.83h39.61L204.76,164.3L185.02,466.83z"/>
	<path d="M296.4,494.95c3.28-10.44,6.77-33.99,10.48-70.66c3.71-36.66,11.18-145.31,22.41-325.96c0.43-8.01,0.7-13.53,0.79-16.57
		c0.1-3.03,0.14-6.61,0.14-10.74c-0.1-13.6-1.86-26.47-5.28-38.61c-3.42-12.14-8.26-18.21-14.53-18.21V0h93.02v14.2
		c-8.67,0-14.37,8.26-17.09,24.77c-2.72,16.51-4.08,42.61-4.08,78.3v377.68h26.96L399.83,700h-2.46
		c-1.83-96.4-4.61-152.42-8.35-168.08c-3.73-15.66-7.46-23.49-11.17-23.49h-66.71c-3.71,0-7.43,7.83-11.17,23.49
		c-3.73,15.66-6.52,71.68-8.35,168.08h-2.46l-9.4-205.05H296.4z M361.01,494.95V14.2c-10.6,0-17.49,7.83-20.67,23.49
		s-6,40.98-8.46,75.94c-11.32,175.06-18.61,279.47-21.86,313.22c-3.25,33.75-6.08,56.45-8.49,68.11H361.01z"/>
	<path d="M469.79,368.05v312.89h9.76c20.14,0,33.79-25.24,40.94-75.72c7.15-50.47,11.86-115.33,14.13-194.56h2.96V700H427.29v-19.56
		c8.67,0,14.37-11.36,17.09-34.09c2.72-22.73,4.08-58.67,4.08-107.81V161.46c0-49.14-1.36-85.07-4.08-107.81
		c-2.72-22.73-8.42-34.1-17.09-34.1V0h107.62v272.28h-2.46c-4.24-105.96-9.67-174.75-16.3-206.34
		c-6.63-31.59-17.82-47.39-33.57-47.39h-12.79V349c9.64,0,17.01-17.55,22.12-52.65c5.11-35.1,8.09-91.09,8.96-167.98h2.67v460.31
		h-2.67C500,511.8,497.01,455.8,491.9,420.7C486.8,385.6,479.43,368.05,469.79,368.05z"/>
	<path d="M651.85,323.08h9.61c1.78,0,3.71-3.5,5.78-10.52c2.07-7.02,4-20.15,5.78-39.41c2.02-28.06,3.64-62.66,4.84-103.78
		c1.2-51.88,3.31-93.08,6.32-123.6C687.2,15.26,692.08,0,698.83,0c11.23,4.57,16.84,36.07,16.84,94.48
		c-0.19,57.45-4.26,86.97-12.21,88.6c-7.71,0-11.85-22.52-12.43-67.56c0-43.72,2.22-70,6.65-78.81c1.64-2.61,2.46-5.38,2.46-8.32
		c0-4.57-0.87-7.02-2.6-7.35c-5.73,1.31-9.73,17.14-12,47.49c-2.27,30.35-3.88,65.27-4.84,104.75
		c-1.45,50.26-3.25,88.44-5.42,114.54c-1.93,17.62-3.7,29.62-5.31,35.98c-1.61,6.36-2.81,10.69-3.58,12.97
		c0.77,6.53,3.14,13.14,7.12,19.82c3.98,6.69,8.97,11.35,15,13.96l21.1,252.09c2.5,24.48,5.44,40.31,8.82,47.48
		c3.37,7.18,7.37,10.77,12,10.77V700h-38.96l-28.55-356.85h-11.06v199.24c0,47.97,1.36,83.05,4.08,105.24
		c2.72,22.2,8.42,33.28,17.09,33.28V700h-63.6v-19.09c8.67,0,14.37-11.09,17.09-33.28c2.72-22.19,4.08-57.27,4.08-105.24V343.15
		h-11.06L590.99,700h-38.96v-19.09c4.63,0,8.62-3.58,12-10.77c3.37-7.18,6.31-23.01,8.82-47.48l21.1-252.09
		c6.02-2.61,11.02-7.27,15-13.96c3.98-6.68,6.35-13.29,7.12-19.82c-0.77-2.28-1.96-6.61-3.58-12.97
		c-1.62-6.37-3.39-18.36-5.31-35.98c-2.17-26.11-3.98-64.29-5.42-114.54c-0.96-39.48-2.58-74.41-4.84-104.75
		c-2.27-30.35-6.26-46.18-12-47.49c-1.73,0.33-2.6,2.78-2.6,7.35c0,2.94,0.82,5.71,2.46,8.32c4.43,8.81,6.65,35.08,6.65,78.81
		c-0.58,45.04-4.72,67.56-12.43,67.56c-7.95-1.63-12.02-31.16-12.21-88.6c0-58.41,5.61-89.9,16.84-94.48
		c6.74,0,11.62,15.26,14.64,45.77c3.01,30.52,5.12,71.71,6.32,123.6c1.2,41.12,2.82,75.72,4.84,103.78
		c1.78,19.26,3.71,32.39,5.78,39.41c2.07,7.02,4,10.52,5.78,10.52h9.61V174.26c0-47.97-1.36-83.05-4.08-105.24
		c-2.72-22.19-8.42-33.29-17.09-33.29V16.65h63.6v19.09c-8.67,0-14.37,11.1-17.09,33.29c-2.72,22.2-4.08,57.27-4.08,105.24V323.08z"
		/>
	<path d="M753.54,494.95c3.28-10.44,6.77-33.99,10.48-70.66c3.71-36.66,11.18-145.31,22.41-325.96c0.43-8.01,0.7-13.53,0.79-16.57
		c0.1-3.03,0.14-6.61,0.14-10.74c-0.1-13.6-1.86-26.47-5.28-38.61c-3.42-12.14-8.26-18.21-14.53-18.21V0h93.02v14.2
		c-8.67,0-14.37,8.26-17.09,24.77c-2.72,16.51-4.08,42.61-4.08,78.3v377.68h26.96L856.97,700h-2.46
		c-1.83-96.4-4.61-152.42-8.35-168.08c-3.73-15.66-7.46-23.49-11.17-23.49h-66.71c-3.71,0-7.43,7.83-11.17,23.49
		c-3.73,15.66-6.52,71.68-8.35,168.08h-2.46l-9.4-205.05H753.54z M818.15,494.95V14.2c-10.6,0-17.49,7.83-20.67,23.49
		c-3.18,15.66-6,40.98-8.46,75.94c-11.32,175.06-18.61,279.47-21.86,313.22c-3.25,33.75-6.08,56.45-8.49,68.11H818.15z"/>
	<path d="M945.14,550.49l-45.1-440.69c-2.94-27.77-6.29-49.83-10.05-66.18c-3.76-16.33-8.02-24.51-12.79-24.51V0h61.36v19.11
		c-6.6,0-11.06,3.85-13.37,11.52c-2.31,7.68-3.54,18.23-3.69,31.62c0,13.41,0.59,27.21,1.77,41.42c1.18,14.22,2.9,31.12,5.17,50.73
		l26.74,247.55l17.42-248.04c0.87-9.8,1.3-25.98,1.3-48.53c0-27.12-1.58-48.28-4.73-63.48c-3.16-15.2-6.45-22.79-9.87-22.79V0H1000
		v19.11c-4.92,0-9.49,13.9-13.73,41.68s-7.61,59.64-10.12,95.59l-28.62,419.12c-2.99,44.78-5.99,76.72-9,95.84
		c-3.01,19.11-7.02,28.67-12.03,28.67c-6.6,0-11.31-9.15-14.13-27.45c-2.82-18.3-4.25-42.48-4.3-72.55
		c0.14-27.12,1.18-49.1,3.11-65.93c1.93-16.83,4.77-25.25,8.53-25.25c4.19,0,7.38,7.93,9.58,23.78c2.19,15.85,3.29,36.2,3.29,61.03
		c-0.1,20.91-0.82,35.95-2.17,45.1c-1.35,9.15-2.8,15.85-4.34,20.1c-0.34,0.98-0.51,3.43-0.51,7.35c0,3.92,0.3,6.78,0.9,8.58
		c0.6,1.8,1.38,2.7,2.35,2.7c2.6-1.96,5.16-10.7,7.66-26.22C938.97,635.71,941.87,602.13,945.14,550.49z"/>
</g>
<text transform="matrix(1 0 0 1 -84 135.2656)" class="st0 st2 st3">ВСЯК</text>
<text transform="matrix(1 0 0 1 -223 244.2656)" class="st0 st2 st3">СЮДА</text>
<text transform="matrix(1 0 0 1 480 179.2656)" class="st0 st2 st3">ВХОДЯЩИЙ</text>
</svg>
