<?xml version="1.0" encoding="utf-8"?>
<!-- Generator: Adobe Illustrator 24.1.3, SVG Export Plug-In . SVG Version: 6.00 Build 0)  -->
<svg version="1.1" id="Слой_1" xmlns="http://www.w3.org/2000/svg" xmlns:xlink="http://www.w3.org/1999/xlink" x="0px" y="0px"
	 viewBox="0 0 1017 379.1" style="enable-background:new 0 0 1017 379.1;" xml:space="preserve">
<style type="text/css">
	.st0{fill:#00F1B7;}
</style>
<g>
	<path class="st0" d="M194.7,37.1c0-5.7-1.1-9.9-3.3-12.6c-2.2-2.7-6.8-4-13.8-4v-2.3h51.6v2.3c-7,0-11.7,1.3-13.9,4
		c-2.2,2.7-3.3,6.9-3.3,12.6v44.1c0,5.7,1.1,9.9,3.3,12.6c2.2,2.7,6.9,4,13.9,4v2.3h-51.6v-2.3c7,0,11.6-1.3,13.8-4
		c2.2-2.7,3.3-6.9,3.3-12.6V37.1z"/>
	<path class="st0" d="M312,16.3c8.8,0,15.5,1.7,20.2,5c4.6,3.3,7.7,5,9.1,5c2.5,0,6-2.9,10.3-8.6h2.2l1.6,39.2h-1.8
		c-4.1-13.4-9.8-23.2-17-29.2c-7.1-6.1-14.6-9.1-22.4-9.1c-8.5,0-14.5,3.5-18,10.6c-3.5,7-5.2,17.2-5.2,30.5
		c0,15.7,2.5,26.2,7.5,31.5c5,5.3,11.4,8,19.1,8c10,0,18.1-2.9,24.4-8.6c6.3-5.7,10.4-12.3,12.2-19.6h2.4
		C355,78.5,350.8,85.6,344,92c-6.7,6.4-15.9,9.6-27.4,9.6c-13.1,0-24.2-4.4-33.2-13.1c-9-8.8-13.5-18.7-13.5-29.7
		c0-11.3,4.4-21.2,13.1-29.6C291.8,20.6,301.5,16.3,312,16.3z"/>
	<path class="st0" d="M383.7,72.2h32.1l-16.1-36L383.7,72.2z M405.5,16.6h2.6l34.2,74.2c1.6,2.9,3.6,4.7,6.2,5.6
		c2.6,0.9,5.3,1.3,8.2,1.3v2.3h-47.6v-2.3c6.8,0,11-0.4,12.6-1.3c1.7-0.9,2.5-2.3,2.5-4.2c-0.1-2-2.5-7.9-7.2-17.9h-34.1l-3.6,8
		c-0.4,1-0.6,2.6-0.6,4.8c0.4,3.6,1.6,6.3,3.8,8c2.2,1.7,4.9,2.5,8,2.5v2.3h-33.6v-2.3c9.5,0,17.9-9.2,25-27.7L405.5,16.6z"/>
	<path class="st0" d="M458.1,18.2h32.8l57,58.4v-29c0-11.1-1.8-18.3-5.5-21.9c-3.7-3.5-8.3-5.3-13.9-5.3v-2.3h40.4v2.3
		c-5.5,0-10,1.6-13.5,4.7c-3.5,3.2-5.3,10.8-5.3,23v52.6h-2l-70.6-72.2v45.9c0,10.5,2,17.1,5.9,19.5s9.2,3.7,15.9,3.7v2.3h-42.8
		v-2.3c4.5,0,8.8-1.2,12.8-3.5c4-2.3,6-7.9,6-16.8V37.8c0-7-1.5-11.7-4.5-13.9c-3-2.3-7.2-3.4-12.7-3.4V18.2z"/>
	<path class="st0" d="M784.5,61.2v36.6h7.9c16.3,0,27.4-2.9,33.2-8.8c5.8-5.9,9.6-13.5,11.5-22.7h2.4V100H750v-2.3
		c7,0,11.6-1.3,13.8-4c2.2-2.7,3.3-6.9,3.3-12.6V37.1c0-5.7-1.1-9.9-3.3-12.6c-2.2-2.7-6.8-4-13.8-4v-2.3h87.2V50h-2
		c-3.4-12.4-7.9-20.4-13.2-24.1c-5.4-3.7-14.4-5.6-27.2-5.6h-10.4V59c7.8,0,13.8-2.1,17.9-6.2c4.1-4.1,6.6-10.6,7.3-19.6h2.2V87
		h-2.2c-0.7-9-3.1-15.5-7.3-19.6C798.3,63.3,792.3,61.2,784.5,61.2z"/>
	<path class="st0" d="M719.4,52.2c2.8,0.1,5.5,0.7,8.1,1.6c2.7,0.9,5,2.1,7.1,3.6c2.2,1.5,4,3.4,5.5,5.7c1.5,2.3,2.5,4.8,3,7.8
		c0.8,4.4,0.3,8.7-1.2,13c-1.6,4.2-3.9,8-6.9,11.6c-2.9,3.5-6.4,6.5-10.4,9c-4,2.4-8.1,3.9-12.2,4.6c-2.2,0.4-4.4,0.4-6.6,0.1
		c-2.1-0.3-4-1-5.7-1.9c-1.8-1-3.3-2.3-4.6-3.9c-1.2-1.6-2-3.5-2.3-5.8c-0.6-3.4-0.3-6.6,0.9-9.6c1.3-3.1,2.6-5.7,4.1-7.8
		c0.6-0.8,1.2-1.7,2-2.6c0.7-0.9,1.5-1.8,2.1-2.5c0.7-0.8,1.3-1.5,1.8-2c0.5-0.5,0.8-0.7,0.9-0.8c0.5-0.1,0.8,0.2,0.9,0.8
		c0,0.3-0.5,1-1.6,2.1c-1,1-2.5,2.7-4.4,5.3c-1.9,2.5-3.3,5.3-4.3,8.3c-0.9,3-1.1,5.6-0.7,8c0.7,4.1,2.6,7.1,5.6,9
		c3.1,1.9,6.7,2.5,10.7,1.8c4.1-0.7,7.6-2.4,10.6-5c3-2.7,5.5-6,7.4-9.7c2-3.7,3.3-7.7,4-11.8s0.7-8.1,0.1-11.8
		c-0.6-3.3-1.4-6-2.6-8.1c-1.2-2.1-2.4-3.7-3.9-4.9c-1.4-1.3-2.9-2.1-4.5-2.4c-1.6-0.3-3.1-0.4-4.5-0.1c-1.2,0.2-2.1,0.5-2.7,0.8
		c-0.6,0.3-1.2,0.6-1.8,0.9c-0.6,0.3-1.3,0.6-2.1,1c-0.7,0.3-1.9,0.6-3.3,0.9c-1.9,0.3-2.9-0.2-3.1-1.6c-0.1-0.8,0.2-1.4,0.9-2
		c0.8-0.5,2.3-1,4.4-1.4c1.5-0.3,2.5-0.4,3.2-0.4c0.8,0,1.5-0.1,2.1-0.2c2.9-0.5,5.5-1.8,7.6-3.9c2.2-2.1,3.9-4.5,5.1-7.2
		c1.2-2.8,2-5.8,2.4-8.8c0.5-3.1,0.5-6,0-8.6c-0.6-3.7-1.7-6.6-3.2-8.8c-1.5-2.2-3.6-3.8-6.4-4.9c-4,3.8-7.3,8.2-10.1,13.3
		c-2.8,5-5.2,10.2-7.3,15.7c-2.1,5.5-4,11-5.8,16.5c-1.8,5.5-3.6,10.7-5.6,15.6c-2.1,5.2-4.7,10.5-7.8,16.1s-6.6,10.7-10.6,15.4
		c-4,4.7-8.5,8.8-13.6,12.3c-4.9,3.4-10.4,5.5-16.5,6.6c-2.5,0.4-4.9,0.5-7.2,0.3c-2.3-0.3-4.3-0.9-6.2-1.8c-1.8-0.9-3.2-2-4.3-3.3
		c-1.1-1.4-1.9-3-2.2-4.7c-0.3-1.7,0.1-3.1,1.1-4.4c1-1.4,2.3-2.2,3.9-2.5c3.6-0.6,5.7,0.8,6.3,4.3c0.2,1,0.1,1.9-0.3,2.9
		c-0.4,0.9-0.5,1.7-0.3,2.5c0.3,1.7,1.2,3,2.7,4.1c1.5,1.1,3.8,1.3,6.9,0.8c3.9-0.7,7.6-2,11.2-3.9c3.6-1.9,7-4.8,10.1-8.5
		c3.2-3.8,6.2-8.5,9.1-14.4c3-5.9,5.9-13.2,8.6-21.9c2.2-6.8,4.3-13,6.6-18.7c2.3-5.7,4.9-11.1,7.6-16.1c2.9-5,6-9.7,9.5-14.1
		c3.5-4.4,7.4-8.6,11.7-12.7c-4.6-1.2-9.4-1.8-14.3-1.8c-4.9,0-9.8,0.5-14.5,1.3c-5.5,0.9-11,2.6-16.5,4.9c2.6,1.7,4.7,4.1,6.2,7.2
		c1.6,3.1,2.7,6.2,3.2,9.1c0.9,5.3,0.6,10.8-0.9,16.7c-1.4,5.9-3.7,11.3-7,16.4c-3.2,5.1-7.3,9.5-12,13.2
		c-4.8,3.6-10.1,5.9-15.8,6.9c-4.4,0.8-8.4,0.1-11.9-2c-3.5-2.1-5.7-5.8-6.5-10.9c-1-5.6-0.3-11.2,1.9-16.9
		c2.3-5.8,5.5-11.3,9.7-16.4c4.1-5.2,8.8-9.8,14-13.8c5.3-4.1,10.5-7.3,15.6-9.4c-2.7-1.5-5.5-2.3-8.4-2.6c-3-0.4-5.9-0.3-8.9,0.2
		c-3.9,0.7-7.6,1.9-11,3.7c-3.3,1.7-6.4,3.7-9.2,6.1c-2.7,2.3-5.1,4.7-7.2,7.4s-3.7,5.3-4.8,7.9c-1.7,3.6-2.9,6.6-3.7,8.9
		c-0.7,2.2-1.2,4-1.5,5.4c-0.3,1.3-0.4,2.1-0.5,2.6c0,0.4-0.2,0.6-0.5,0.7c-0.5,0.1-0.8-0.1-0.9-0.6c-0.1-0.4,0.2-2.1,0.9-5.3
		c0.8-3.2,2.3-7.2,4.6-11.9c1.5-3.1,3.3-6,5.6-8.9c2.3-3,4.8-5.7,7.7-8.1c2.9-2.4,6.1-4.4,9.5-6.1c3.4-1.7,7-2.9,10.8-3.5
		c3.3-0.6,6.6-0.6,9.9,0c3.4,0.5,6.5,1.6,9.4,3.2c3.1-1.3,6.2-2.5,9.2-3.4c3-1,6.1-1.8,9.2-2.3c10.3-1.8,20.5-1.5,30.5,0.7
		c1.5-1.2,3.1-2.4,4.6-3.7c1.7-1.3,3.3-2.1,4.9-2.3c0.4-0.1,0.6,0.1,0.7,0.5c0,0.2-0.1,0.4-0.5,0.7c-0.4,0.2-0.9,0.5-1.7,0.9
		c-0.6,0.3-1.5,0.9-2.4,1.6c-1,0.7-2.1,1.6-3.4,2.8c4.3,1.4,8,3.5,11,6.4s4.9,6.5,5.6,10.9c0.5,3.1,0.3,6.1-0.7,8.9
		c-1,2.8-2.5,5.4-4.6,7.7c-2,2.4-4.3,4.4-6.9,6.2c-2.6,1.8-5.2,3.2-7.8,4.4L719.4,52.2z M630.9,69.7c0.7,3.9,2.3,6.8,4.8,8.8
		c2.6,2,6.2,2.6,10.7,1.8c4.8-0.8,9.2-3.2,13.4-7.1c4.1-4,7.7-8.6,10.6-13.9c3-5.3,5.2-10.8,6.5-16.5c1.4-5.7,1.8-10.6,1.1-14.9
		c-0.6-3.5-1.5-6.4-2.7-8.7c-1.1-2.3-2.4-4.1-3.9-5.2c-4.7,2-9.6,4.9-14.8,8.6c-5.2,3.7-9.9,8-14,12.9c-4.2,4.9-7.4,10.3-9.7,16.1
		C630.4,57.5,629.8,63.5,630.9,69.7z"/>
</g>
<g>
	<path class="st0" d="M472.6,140.8c14.3,0,26.1,4.3,35.3,12.8c9.2,8.5,13.8,18.4,13.8,29.8c0,11.7-4.7,21.7-14.1,30.1
		c-9.4,8.3-21.1,12.4-35,12.4c-13.6,0-25.2-4.1-34.8-12.4c-9.6-8.3-14.4-18.3-14.4-30.1c0-11.8,4.7-21.8,14.1-30.1
		C447,144.9,458.7,140.8,472.6,140.8z M472.8,143.2c-8.6,0-15.4,3.7-20.6,11.2c-5.1,7.4-7.7,17.1-7.7,28.9c0,11.8,2.7,21.5,8,28.9
		c5.3,7.4,12.1,11.1,20.3,11.1c8.6,0,15.4-3.7,20.5-11.1c5.1-7.5,7.7-17.1,7.7-28.9c0-11.9-2.7-21.5-8-28.9
		C487.7,146.9,481,143.2,472.8,143.2z"/>
	<path class="st0" d="M518.6,142.5h57v2.3c-8,0-13.6,1-16.8,2.9c-3.1,1.9-4.6,7.4-4.6,16.6v32.6c0,10.1,2.3,17.1,7,21
		c4.7,3.9,12,5.8,22,5.8c8.4,0,15.4-2,21-6.1c5.6-4.1,8.4-10.8,8.4-20.2v-24.5c0-12.1-1.8-19.8-5.3-23.1c-3.5-3.3-8.6-5-15.4-5v-2.3
		h39.8v2.3c-5,0-9.1,1.7-12.4,5.2c-3.2,3.4-4.9,10-4.9,19.6v29.6c0,8.9-3.1,15.7-9.4,20.2c-6.3,4.5-14.9,6.8-26,6.8
		c-15.9,0-27-2.5-33-7.5c-6.1-5-9.1-11-9.1-18.1v-36c0-9.3-1.6-14.9-4.9-16.8c-3.2-1.9-7.7-2.9-13.5-2.9V142.5z"/>
	<path class="st0" d="M665.4,182.1h21c10.5,0,17.4-1.7,20.9-5.2c3.5-3.5,5.2-7.7,5.2-12.7v-1.8c0-5-1.8-9.2-5.4-12.7
		c-3.6-3.4-10.8-5.2-21.5-5.2h-20.3V182.1z M698.2,142.5c12.7,0,21.6,2.1,26.5,6.2c5,4.1,7.5,8.7,7.5,13.6v2.6
		c0,5.5-3.4,10.1-10.3,13.8c-6.8,3.7-15.2,5.6-25.2,5.6h-10.4c6.6,3.8,11.3,6.3,14.1,7.6c2.9,1.2,6.6,2.4,11.2,3.5l14.1,19.7
		c2.2,2.9,4.7,4.8,7.4,5.7c2.7,0.9,6,1.3,9.7,1.3v2.3h-31l-28.4-40h-18v21.2c0,5.7,1.1,9.9,3.3,12.6c2.2,2.7,6.9,4,13.9,4v2.3H631
		V222c7,0,11.6-1.3,13.8-4c2.2-2.7,3.3-6.9,3.3-12.6v-44.1c0-5.7-1.1-9.9-3.3-12.6c-2.2-2.7-6.8-4-13.8-4v-2.3H698.2z"/>
	<path class="st0" d="M396.4,182c-1.5,2.5-3.8,5.5-6.8,9c-3.1,3.5-6.5,6.9-10.2,10.3c-3.6,3.3-7.3,6.2-11,8.7
		c-3.7,2.4-6.9,3.7-9.8,3.8c-3.3,0.2-5.6-0.6-6.9-2.4c-1.3-1.9-2.1-4.3-2.3-7.4c-0.2-3.7,0.2-7.4,1.3-11c1.1-3.7,2.5-7.2,4.3-10.6
		c1.7-3.5,3.7-6.8,5.9-10.1c2.2-3.3,4.1-6.5,5.9-9.6c1.8-3.2,3.2-6.2,4.4-9s1.7-5.6,1.5-8.3c-0.1-2.3-0.8-4.2-1.9-5.7
		c-1.1-1.6-2.5-2.8-4.2-3.6c-1.6-0.9-3.4-1.5-5.5-1.8c-2.1-0.4-4.1-0.5-6-0.4c-4.4,0.3-9.4,1.5-15,3.8c-5.6,2.3-10.9,5.3-15.8,9
		c-4.9,3.7-9,7.9-12.3,12.8c-3.2,4.8-4.6,9.8-4.3,15c0.2,3.3,1.6,5.9,4.2,7.8c2.6,1.8,5.4,2.6,8.6,2.4c4.3-0.3,8.8-1.9,13.6-5
		c4.7-3.2,9.2-7.5,13.4-13.1c2.4-3.1,4.1-6.2,5.3-9.3c1.2-3,2-5.7,2.4-8c0.6-2.4,0.9-4.3,1-5.8c0.2-1.5,0.6-2.2,1.1-2.2
		c0.7,0,1.1,0.3,1.1,1.2c0,0.6-0.1,2.1-0.3,4.5c-0.2,2.4-0.7,5.2-1.5,8.4c-0.8,3.1-2,6.5-3.6,10.1c-1.5,3.6-3.6,6.9-6.3,10.1
		c-2.7,3-6,5.6-9.8,7.8c-3.9,2.1-8.6,3.3-14.1,3.6c-5,0.3-9-0.7-12-3.1c-3-2.4-4.6-5.4-4.9-8.9c-0.2-3.4,0.4-6.7,1.7-10.1
		c1.4-3.4,3.4-6.6,5.9-9.7c2.5-3.1,5.3-6,8.6-8.7c3.3-2.8,6.8-5.1,10.5-7.1c3.7-2.1,7.4-3.7,11.1-5c3.8-1.3,7.4-2,10.8-2.2
		c6.5-0.4,11.9,0.9,15.9,4c4.1,2.9,6.4,8.5,6.9,16.8c0.2,3.3-0.3,6.6-1.4,9.9c-1.1,3.4-2.6,6.7-4.3,10.1c-1.7,3.4-3.7,6.7-5.9,10.1
		c-2.2,3.2-4.1,6.4-5.9,9.4c-1.8,3-3.2,5.8-4.4,8.4c-1.2,2.6-1.7,5-1.6,7.2c0.1,1.5,0.6,2.6,1.6,3.1s2.2,0.8,3.6,0.7
		c1.6-0.1,3.9-1,6.9-2.7c3.1-1.7,6.4-4,9.9-6.9c3.6-2.9,7.2-6.2,10.8-10c3.7-3.9,6.9-8.1,9.6-12.6c7-11.4,13.4-20.6,19.3-27.5
		c5.9-7,11.1-12.4,15.5-16.2c4.4-3.8,7.9-6.2,10.6-7.4c2.8-1.3,4.6-2,5.4-2c0.7,0,1.1,0.2,1.1,0.9c0,0.5-0.5,1-1.5,1.5
		c-1,0.4-2.4,1-4,1.8c-1.7,0.8-3.7,2-5.9,3.6c-2.3,1.5-4.7,3.5-7.3,6.1c-2.5,2.6-5.1,6-7.7,10c-2.6,4-5.2,8.8-7.7,14.6
		c-1.2,2.7-2.6,6.1-4.3,10.1c-1.7,3.9-3.6,8.1-5.6,12.5c-2,4.4-4.1,9-6.4,13.6c-2.2,4.6-4.4,9.1-6.7,13.3c-2.2,4.2-4.4,8.1-6.5,11.6
		c-2.1,3.5-4.2,6.4-6.1,8.5c-7.8,8.8-17,15.7-27.7,20.8c-10.6,5.2-21.7,8.1-33.5,8.8c-4.8,0.3-9.7-0.1-14.5-1.1
		c-4.9-0.9-9.3-2.6-13.4-5c-4-2.4-7.4-5.6-10.1-9.4c-2.7-3.8-4.2-8.5-4.5-13.9c-0.3-5,0.7-9.7,3-14c2.4-4.5,5.5-8.3,9.3-11.6
		c3.9-3.3,8.2-6,12.9-8c4.7-2,9.3-3.2,13.8-3.4c4.5-0.3,8.6,0.1,12.4,1.1c3.9,1,7.1,2.5,9.8,4.5c2.8,2,5,4.3,6.6,7
		c1.6,2.7,2.5,5.5,2.7,8.6c0.3,4.2-0.5,8-2.2,11.4c-1.7,3.4-4.1,6.3-7,8.7c-2.9,2.3-6.3,4.2-10.1,5.5c-3.7,1.4-7.5,2.1-11.3,2.4
		c-1.3,0.1-2.7,0.1-4.2-0.1c-1.4-0.1-2.8-0.3-4-0.5s-2.3-0.5-3.1-0.7c-0.7-0.3-1.1-0.5-1.1-0.9c0-0.5,0.2-0.8,0.7-0.8
		c0.3,0,0.7,0.1,1.1,0.2c0.5,0.2,1.3,0.3,2.2,0.5c1,0.1,2.3,0.3,3.9,0.4c1.6,0.1,3.7,0.1,6.2-0.1c3.2-0.2,6.4-0.9,9.7-2.3
		c3.3-1.3,6.2-3,8.8-5.1c2.5-2.2,4.6-4.8,6.2-7.8c1.6-3,2.2-6.2,2-9.8c-0.2-3.5-1.1-6.4-2.7-8.6c-1.5-2.4-3.4-4.2-5.9-5.5
		c-2.3-1.3-5-2.2-8-2.6c-2.9-0.5-5.8-0.7-8.8-0.5c-4.8,0.3-9.6,1.4-14.4,3.3c-4.7,1.9-8.9,4.5-12.6,7.7c-3.6,3.2-6.5,7-8.7,11.5
		c-2.1,4.4-3,9.3-2.7,14.5c0.3,4.6,1.7,8.4,4.4,11.4c2.7,3,6,5.4,9.8,7.1c3.9,1.8,8,3,12.2,3.6c4.2,0.7,8.1,0.9,11.4,0.7
		c8.2-0.5,15.4-2,21.8-4.4c6.3-2.3,11.9-5.4,16.8-9.3c5-3.8,9.4-8.2,13.2-13.1c3.9-5.1,7.5-10.5,10.7-16.2
		c3.2-5.8,6.3-11.9,9.1-18.1c2.8-6.3,5.7-12.7,8.7-19.2L396.4,182z"/>
</g>
<g>
	<path class="st0" d="M279.7,318.8h32.1l-16.1-36L279.7,318.8z M301.5,263.2h2.6l34.2,74.2c1.6,2.9,3.6,4.7,6.2,5.6
		c2.6,0.9,5.3,1.3,8.2,1.3v2.3h-47.6v-2.3c6.8,0,11-0.4,12.6-1.3c1.7-0.9,2.5-2.3,2.5-4.2c-0.1-2-2.5-8-7.2-17.9h-34.1l-3.6,8
		c-0.4,1-0.6,2.6-0.6,4.8c0.4,3.6,1.6,6.3,3.8,8c2.2,1.7,4.9,2.5,8,2.5v2.3H253v-2.3c9.5,0,17.9-9.2,25-27.7L301.5,263.2z"/>
	<path class="st0" d="M354.2,264.8H387l57,58.4v-29c0-11.1-1.8-18.3-5.5-21.9c-3.7-3.5-8.3-5.3-13.9-5.3v-2.3H465v2.3
		c-5.5,0-10,1.6-13.5,4.7c-3.5,3.2-5.3,10.8-5.3,23v52.6h-2l-70.6-72.2v45.9c0,10.5,2,17.1,5.9,19.5c3.9,2.5,9.2,3.7,15.9,3.7v2.3
		h-42.8v-2.3c4.5,0,8.8-1.2,12.8-3.5c4-2.3,6-7.9,6-16.8v-39.6c0-7-1.5-11.7-4.5-13.9c-3-2.3-7.2-3.4-12.7-3.4V264.8z"/>
	<path class="st0" d="M511.5,262.9c8.7,0,16.2,1.5,22.5,4.6c6.3,3,10.4,4.5,12.1,4.5c2.4-0.1,5.1-2.4,8-7.1h2.6l0.6,35.4h-2
		c-4-12-9.5-20.8-16.6-26.4c-7.1-5.6-15.3-8.4-24.5-8.4c-6.2,0-12,2.5-17.3,7.4c-5.3,4.9-7.9,16.1-7.9,33.6c0,14.5,2.3,24.6,7,30.5
		c4.7,5.9,12.2,8.8,22.6,8.8c6.6,0,11.9-1.4,16.1-4.2c4.2-2.9,6.3-7.1,6.3-12.8c0-7.7-1.7-12.5-5-14.4c-3.3-1.9-8.2-2.8-14.8-2.8
		h-2.4v-2.2h56.3v2.2c-5.6,0-9.8,1.2-12.6,3.6c-2.8,2.3-4.2,7.7-4.2,16v14.6h-2.2c-2.8-2.7-5.8-4-9.1-4c-3.5,0-7.7,1.1-12.5,3.2
		c-4.9,2.1-10.6,3.2-17.1,3.2c-15.2,0-27.3-4.1-36.3-12.4c-8.9-8.2-13.4-17.9-13.4-29c0-13,4.6-23.5,13.9-31.6
		C490.8,267,500.8,262.9,511.5,262.9z"/>
	<path class="st0" d="M672.7,264.8h56v2.2c-7.7,0-13.1,0.9-16.2,2.8c-3.1,1.8-4.6,7-4.6,15.5v59.2h16c9.6,0,17.3-2,23-5.9
		c5.7-4,10.7-13.3,14.9-28.1h2.3v36.2h-91.3v-2.2c8.1,0,13.1-1.5,15.1-4.5c2-3,2.9-8.1,2.9-15.3v-39.4c0-7.1-1.2-11.9-3.6-14.4
		c-2.3-2.5-7.1-3.8-14.4-3.8V264.8z"/>
	<path class="st0" d="M620.5,299c-3.3-1-6.5-2.8-9.6-5.5c-3.3,1-6.4,1.6-9.3,1.8c-4.3,0.2-8.3-0.1-12-0.9c-3.7-0.8-7-2.1-9.8-3.9
		c-2.8-1.7-5.1-3.9-6.8-6.6c-1.7-2.7-2.7-5.8-2.9-9.3c-0.2-4,0.5-7.5,2.2-10.7c1.7-3.1,4-5.8,6.8-8.1c2.8-2.3,6-4,9.6-5.3
		c3.6-1.2,7.2-2,10.7-2.2c5.2-0.3,10.3,0.4,15.2,2.2c4.9,1.6,9.5,3.9,13.6,7c3.9-2.1,7.9-4,12.1-5.7c4.2-1.7,8.6-2.7,13.2-2.9
		c2.8-0.2,5.1,0.4,6.7,1.5c1.7,1.1,2.7,3.1,2.8,6c0.1,2.4-0.7,5-2.4,7.7c-1.7,2.6-4,5.2-6.8,7.8c-2.8,2.6-6,5-9.5,7.3
		c-3.5,2.3-7.1,4.4-10.5,6.3c-3.5,1.8-6.7,3.3-9.8,4.5c-3.1,1.1-5.6,1.8-7.4,2c0.6,1.8,1.5,3.3,2.6,4.6c1.2,1.2,2.8,1.7,4.8,1.6
		c0.5,0,1.3-0.2,2.2-0.4c1-0.3,2.2-0.4,3.6-0.5c1.5-0.1,2.9,0.1,4.3,0.6c1.4,0.3,2.1,0.8,2.1,1.5c0.1,1.4-1.1,2.1-3.5,2.2
		c-2.7,0.1-4.7-0.1-6-0.6c-1.3-0.6-2.4-0.8-3.3-0.8c-3.1,0.2-6.9,1.4-11.1,3.6c-4.2,2.1-8.2,5.1-11.9,9c-3.7,3.8-6.7,8.4-9.2,13.7
		c-2.4,5.3-3.5,11.1-3.1,17.5c0.3,5.9,1.7,10.3,4.2,13.2c2.6,2.9,6.3,4.6,11.3,5.1c-0.3-0.9-0.5-1.9-0.6-3c-0.2-1-0.3-2.1-0.3-3.1
		c-0.3-6,0.2-11.5,1.6-16.6c1.4-5.1,3.4-9.6,6-13.4c2.6-3.8,5.7-6.8,9.3-9c3.7-2.3,7.5-3.6,11.4-3.8c3.9-0.2,6.9,1,9.2,3.6
		c2.2,2.6,3.5,5.7,3.7,9.3c0.3,4.6-0.8,9.1-3,13.6c-2.3,4.3-5.3,8.3-9.1,11.9c-3.7,3.5-7.8,6.4-12.4,8.7c-4.6,2.3-9,3.5-13.3,3.9
		c0.5,3.3,1.2,6.4,2.2,9.3c1.1,2.9,1.7,4.6,1.7,5.1c0,0.3-0.2,0.5-0.8,0.5c-0.4,0-0.8-0.4-1-1.4c-0.2-0.9-0.7-2.7-1.7-5.3
		c-0.6-1.4-1.1-2.9-1.5-4.5c-0.3-1.5-0.6-2.7-0.8-3.7c-3.6,0.2-6.9-0.1-10.1-0.9c-3.1-0.9-5.8-2.2-8.2-4c-2.4-1.8-4.4-4-5.9-6.8
		c-1.4-2.9-2.2-6.2-2.4-10c-0.3-5.7,0.8-10.9,3.4-15.6c2.7-4.9,6.2-9.2,10.5-12.9c4.3-3.8,9.1-7,14.3-9.5c5.2-2.6,10.3-4.4,15.1-5.4
		L620.5,299z M661.3,255.5c-0.2-3.4-2.7-4.9-7.5-4.6c-1.8,0.1-3.6,0.5-5.6,1.3c-1.9,0.6-3.7,1.4-5.5,2.4c-1.8,0.9-3.6,2-5.3,3.1
		c-1.7,1.1-3.3,2.2-4.7,3.3c1.9,1.9,3.7,3.7,5.3,5.4c1.7,1.6,2.5,2.5,2.5,2.7c0,0.6-0.2,1-0.7,1c-0.2,0-0.5-0.1-0.8-0.4
		c-0.2-0.3-0.6-0.8-1.2-1.4s-1.4-1.4-2.5-2.4c-1-1.1-2.4-2.4-4.1-3.9c-4.4,3.6-8.1,7.7-11,12.3c-2.9,4.5-4.2,9.4-3.9,14.7
		c4.7-1,9.7-2.6,15-4.9c5.3-2.3,10.3-5,14.8-8.1c4.6-3.1,8.3-6.4,11.1-9.9C660.1,262.3,661.5,258.8,661.3,255.5z M574,271
		c0.2,3.7,1.1,6.8,2.7,9.3c1.7,2.5,3.9,4.6,6.5,6.3c2.6,1.5,5.6,2.6,9,3.3c3.4,0.7,7,0.9,10.7,0.7c0.8,0,1.7-0.1,2.7-0.1
		c0.9-0.2,1.9-0.3,2.8-0.5c-0.1-0.7-0.3-1.4-0.4-2c0-0.7-0.1-1.5-0.1-2.4c-0.2-2.9,0.3-5.7,1.3-8.3c1.1-2.7,2.6-5.2,4.5-7.5
		s4-4.4,6.3-6.2c2.3-1.9,4.6-3.6,7-5c-4-2.8-8.4-5-13.1-6.4c-4.7-1.5-9.5-2.2-14.4-1.9c-2.5,0.1-5.3,0.7-8.4,1.7
		c-3,0.9-5.8,2.2-8.4,3.9c-2.5,1.7-4.6,3.8-6.3,6.3C574.5,264.8,573.8,267.7,574,271z M641.9,326.2c-0.2-3.2-1.2-5.8-2.9-7.7
		c-1.8-2-4.4-2.9-7.7-2.7c-3.1,0.2-6.3,1.7-9.5,4.6c-3.2,2.8-6.1,6.3-8.6,10.6c-2.5,4.2-4.5,8.8-6,13.7c-1.5,4.9-2.2,9.5-1.9,13.8
		c0,0.7,0.1,1.4,0.1,2c0,0.6,0.1,1.2,0.3,1.7c4.1,0,8.3-1.1,12.7-3.2c4.4-2.2,8.4-5.1,12-8.5c3.6-3.5,6.5-7.3,8.7-11.5
		S642.1,330.5,641.9,326.2z"/>
</g>
</svg>
