<svg width="1017" height="261" viewBox="0 0 1017 261" fill="none" xmlns="http://www.w3.org/2000/svg">
<path d="M219.266 37.0704C219.266 31.3282 218.153 27.129 215.926 24.4727C213.739 21.8165 209.129 20.4883 202.098 20.4883V18.2032H253.66V20.4883C246.629 20.4883 242 21.8165 239.774 24.4727C237.586 27.129 236.492 31.3282 236.492 37.0704V81.1329C236.492 86.8751 237.586 91.0743 239.774 93.7305C242 96.3868 246.629 97.7149 253.66 97.7149V100H202.098V97.7149C209.129 97.7149 213.739 96.3868 215.926 93.7305C218.153 91.0743 219.266 86.8751 219.266 81.1329V37.0704Z" fill="#00F1B7"/>
<path d="M336.582 16.3282C345.41 16.3282 352.129 17.9883 356.739 21.3086C361.387 24.629 364.434 26.2891 365.879 26.2891C368.418 26.2891 371.856 23.418 376.192 17.6758H378.36L380 56.8751H378.184C374.043 43.4376 368.379 33.6915 361.192 27.6368C354.043 21.543 346.563 18.4961 338.75 18.4961C330.274 18.4961 324.278 22.0313 320.762 29.1016C317.285 36.1329 315.547 46.3086 315.547 59.629C315.547 75.3321 318.047 85.8399 323.047 91.1524C328.086 96.4649 334.453 99.1211 342.149 99.1211C352.149 99.1211 360.274 96.2501 366.524 90.5079C372.813 84.7657 376.895 78.2227 378.77 70.879H381.172C379.492 78.5352 375.293 85.5665 368.574 91.9727C361.856 98.3399 352.715 101.523 341.153 101.523C328.067 101.523 316.992 97.1485 307.93 88.3985C298.906 79.6094 294.395 69.7071 294.395 58.6915C294.395 47.3633 298.77 37.4805 307.52 29.043C316.309 20.5665 325.996 16.3282 336.582 16.3282Z" fill="#00F1B7"/>
<path d="M408.219 72.2266H440.328L424.215 36.1915L408.219 72.2266ZM430.016 16.6211H432.594L466.813 90.8008C468.375 93.6524 470.446 95.5274 473.024 96.4258C475.602 97.2852 478.336 97.7149 481.227 97.7149V100H433.59V97.7149C440.348 97.7149 444.547 97.2852 446.188 96.4258C447.867 95.5274 448.707 94.1407 448.707 92.2657C448.629 90.2735 446.227 84.3165 441.5 74.3946H407.399L403.824 82.4219C403.434 83.4376 403.239 85.0391 403.239 87.2266C403.59 90.8204 404.86 93.4766 407.047 95.1954C409.274 96.8751 411.93 97.7149 415.016 97.7149V100H381.442V97.7149C390.973 97.7149 399.293 88.4766 406.403 70.0001L430.016 16.6211Z" fill="#00F1B7"/>
<path d="M482.668 18.2032H515.481L572.434 76.6211V47.6172C572.434 36.5626 570.598 29.2774 566.926 25.7618C563.254 22.2461 558.625 20.4883 553.039 20.4883V18.2032H593.469V20.4883C588 20.4883 583.489 22.0704 579.934 25.2344C576.418 28.3985 574.66 36.0547 574.66 48.2032V100.82H572.668L502.063 28.5743V74.5118C502.063 85.0586 504.016 91.5626 507.922 94.0235C511.828 96.4844 517.141 97.7149 523.86 97.7149V100H481.086V97.7149C485.617 97.7149 489.875 96.543 493.86 94.1993C497.844 91.8555 499.836 86.2501 499.836 77.3829V37.7735C499.836 30.7422 498.332 26.1133 495.324 23.8868C492.356 21.6211 488.137 20.4883 482.668 20.4883V18.2032Z" fill="#00F1B7"/>
<path d="M809.012 61.211V97.7735H816.922C833.25 97.7735 844.305 94.8243 850.086 88.9258C855.906 83.0274 859.735 75.4493 861.571 66.1915H863.973V100H774.559V97.7149C781.59 97.7149 786.199 96.3868 788.387 93.7305C790.614 91.0743 791.727 86.8751 791.727 81.1329V37.0704C791.727 31.3282 790.614 27.129 788.387 24.4727C786.199 21.8165 781.59 20.4883 774.559 20.4883V18.2032H861.805V50.0196H859.813C856.375 37.6368 851.961 29.6094 846.571 25.9376C841.219 22.2266 832.156 20.3711 819.383 20.3711H809.012V58.9844C816.824 58.9844 822.801 56.9336 826.942 52.8321C831.082 48.7305 833.504 42.1876 834.207 33.2032H836.375V86.9922H834.207C833.504 78.0079 831.082 71.4649 826.942 67.3633C822.801 63.2618 816.824 61.211 809.012 61.211Z" fill="#00F1B7"/>
<path d="M199.304 136.504C213.64 136.504 225.417 140.762 234.636 149.277C243.855 157.754 248.464 167.676 248.464 179.043C248.464 190.762 243.757 200.781 234.343 209.102C224.929 217.383 213.249 221.523 199.304 221.523C185.71 221.523 174.109 217.383 164.499 209.102C154.89 200.781 150.085 190.762 150.085 179.043C150.085 167.285 154.792 157.266 164.206 148.984C173.621 140.664 185.32 136.504 199.304 136.504ZM199.48 138.906C190.886 138.906 184.031 142.637 178.914 150.098C173.796 157.52 171.238 167.168 171.238 179.043C171.238 190.879 173.894 200.527 179.206 207.988C184.519 215.41 191.277 219.121 199.48 219.121C208.035 219.121 214.871 215.41 219.988 207.988C225.105 200.527 227.664 190.879 227.664 179.043C227.664 167.168 225.007 157.52 219.695 150.098C214.382 142.637 207.644 138.906 199.48 138.906Z" fill="#00F1B7"/>
<path d="M245.312 138.203H302.265V140.488C294.218 140.488 288.632 141.445 285.507 143.359C282.421 145.234 280.878 150.781 280.878 160V192.578C280.878 202.695 283.222 209.707 287.91 213.613C292.636 217.481 299.96 219.414 309.882 219.414C318.242 219.414 325.234 217.383 330.859 213.32C336.484 209.219 339.296 202.481 339.296 193.106V168.613C339.296 156.504 337.539 148.789 334.023 145.469C330.546 142.148 325.429 140.488 318.671 140.488V138.203H358.515V140.488C353.515 140.488 349.394 142.207 346.152 145.645C342.91 149.082 341.289 155.606 341.289 165.215V194.805C341.289 203.75 338.164 210.488 331.914 215.02C325.664 219.551 316.992 221.816 305.898 221.816C289.96 221.816 278.945 219.316 272.851 214.316C266.757 209.316 263.71 203.281 263.71 196.211V160.176C263.71 150.84 262.07 145.234 258.789 143.359C255.546 141.445 251.054 140.488 245.312 140.488V138.203Z" fill="#00F1B7"/>
<path d="M392.099 177.813H413.134C423.603 177.813 430.575 176.094 434.052 172.656C437.528 169.18 439.267 164.961 439.267 160V158.184C439.267 153.184 437.47 148.965 433.876 145.527C430.282 142.09 423.114 140.371 412.372 140.371H392.099V177.813ZM424.853 138.203C437.587 138.203 446.435 140.273 451.396 144.414C456.396 148.555 458.896 153.086 458.896 158.008V160.586C458.896 166.094 455.458 170.703 448.583 174.414C441.747 178.125 433.349 179.981 423.388 179.981H412.958C419.521 183.77 424.228 186.289 427.079 187.539C429.931 188.75 433.661 189.902 438.271 190.996L452.333 210.742C454.56 213.672 457.04 215.566 459.774 216.426C462.509 217.285 465.751 217.715 469.501 217.715V220H438.505L410.087 179.981H392.099V201.133C392.099 206.875 393.192 211.074 395.38 213.731C397.606 216.387 402.235 217.715 409.267 217.715V220H357.704V217.715C364.735 217.715 369.345 216.387 371.532 213.731C373.759 211.074 374.872 206.875 374.872 201.133V157.07C374.872 151.328 373.759 147.129 371.532 144.473C369.345 141.816 364.735 140.488 357.704 140.488V138.203H424.853Z" fill="#00F1B7"/>
<path d="M532.56 192.227H564.669L548.556 156.191L532.56 192.227ZM554.356 136.621H556.935L591.153 210.801C592.716 213.652 594.786 215.527 597.364 216.426C599.942 217.285 602.677 217.715 605.567 217.715V220H557.931V217.715C564.688 217.715 568.888 217.285 570.528 216.426C572.208 215.527 573.048 214.141 573.048 212.266C572.97 210.273 570.567 204.316 565.841 194.395H531.739L528.165 202.422C527.774 203.438 527.579 205.039 527.579 207.227C527.931 210.82 529.2 213.477 531.388 215.195C533.614 216.875 536.271 217.715 539.356 217.715V220H505.782V217.715C515.313 217.715 523.634 208.477 530.743 190L554.356 136.621Z" fill="#00F1B7"/>
<path d="M607.009 138.203H639.821L696.774 196.621V167.617C696.774 156.563 694.938 149.277 691.267 145.762C687.595 142.246 682.966 140.488 677.38 140.488V138.203H717.81V140.488C712.341 140.488 707.829 142.07 704.274 145.234C700.759 148.398 699.001 156.055 699.001 168.203V220.82H697.009L626.403 148.574V194.512C626.403 205.059 628.356 211.563 632.263 214.023C636.169 216.484 641.481 217.715 648.2 217.715V220H605.427V217.715C609.958 217.715 614.216 216.543 618.2 214.199C622.185 211.856 624.177 206.25 624.177 197.383V157.773C624.177 150.742 622.673 146.113 619.665 143.887C616.696 141.621 612.478 140.488 607.009 140.488V138.203Z" fill="#00F1B7"/>
<path d="M764.31 136.328C773.021 136.328 780.521 137.852 786.81 140.898C793.138 143.906 797.161 145.41 798.88 145.41C801.263 145.332 803.938 142.969 806.907 138.32H809.485L810.071 173.711H808.079C804.095 161.68 798.548 152.871 791.438 147.285C784.368 141.699 776.185 138.906 766.888 138.906C760.677 138.906 754.915 141.367 749.603 146.289C744.329 151.211 741.692 162.402 741.692 179.863C741.692 194.316 744.036 204.473 748.724 210.332C753.45 216.191 760.97 219.121 771.282 219.121C777.845 219.121 783.216 217.715 787.396 214.902C791.575 212.051 793.665 207.793 793.665 202.129C793.665 194.395 791.985 189.59 788.626 187.715C785.306 185.84 780.384 184.902 773.86 184.902H771.458V182.676H827.708V184.902C822.122 184.902 817.923 186.094 815.11 188.477C812.298 190.82 810.892 196.152 810.892 204.473V219.121H808.665C805.853 216.426 802.825 215.078 799.583 215.078C796.106 215.078 791.927 216.152 787.044 218.301C782.161 220.449 776.458 221.523 769.935 221.523C754.7 221.523 742.61 217.402 733.665 209.16C724.759 200.918 720.306 191.25 720.306 180.156C720.306 167.188 724.954 156.641 734.251 148.516C743.587 140.391 753.606 136.328 764.31 136.328Z" fill="#00F1B7"/>
<path d="M925.534 138.203H981.491V140.371C973.796 140.371 968.405 141.289 965.319 143.125C962.233 144.961 960.69 150.117 960.69 158.594V217.773H976.686C986.335 217.773 993.991 215.801 999.655 211.856C1005.36 207.871 1010.32 198.516 1014.54 183.789H1016.88V220H925.534V217.773C933.62 217.773 938.639 216.289 940.592 213.32C942.546 210.352 943.522 205.254 943.522 198.027V158.594C943.522 151.523 942.331 146.719 939.948 144.18C937.604 141.641 932.799 140.371 925.534 140.371V138.203Z" fill="#00F1B7"/>
<path d="M743.931 52.1837C746.762 52.3022 749.464 52.8441 752.038 53.8095C754.693 54.6606 757.056 55.8627 759.128 57.4157C761.298 58.952 763.128 60.8476 764.617 63.1024C766.107 65.3573 767.101 67.9476 767.601 70.8734C768.351 75.2621 767.938 79.5986 766.362 83.883C764.769 88.0699 762.467 91.9263 759.456 95.4521C756.542 98.9612 753.09 101.96 749.099 104.449C745.091 106.84 741.039 108.386 736.943 109.086C734.7 109.469 732.496 109.495 730.331 109.162C728.264 108.813 726.35 108.186 724.59 107.283C722.813 106.281 721.286 104.986 720.011 103.398C718.833 101.792 718.053 99.8678 717.669 97.6246C717.086 94.2112 717.39 90.9975 718.581 87.9834C719.854 84.8551 721.217 82.2632 722.673 80.2077C723.239 79.4084 723.894 78.5436 724.638 77.6134C725.383 76.6832 726.095 75.8588 726.775 75.1403C727.439 74.3243 728.03 73.6712 728.548 73.1811C729.067 72.691 729.375 72.4376 729.472 72.4209C729.96 72.3376 730.254 72.5885 730.354 73.1737C730.404 73.4663 729.87 74.1598 728.752 75.2542C727.715 76.2344 726.258 77.989 724.382 80.5179C722.506 83.0468 721.069 85.8017 720.073 88.7824C719.174 91.7465 718.925 94.3988 719.325 96.7395C720.025 100.836 721.892 103.829 724.925 105.72C728.056 107.594 731.62 108.189 735.619 107.506C739.715 106.806 743.246 105.148 746.212 102.533C749.259 99.8045 751.718 96.5737 753.589 92.8411C755.558 89.0919 756.892 85.1501 757.591 81.0157C758.29 76.8813 758.322 72.961 757.689 69.255C757.122 65.9391 756.257 63.2263 755.094 61.1165C753.93 59.0067 752.646 57.3692 751.243 56.2038C749.822 54.9409 748.331 54.1419 746.768 53.8067C745.205 53.4716 743.692 53.429 742.229 53.679C741.059 53.879 740.149 54.1349 739.5 54.4466C738.948 54.7417 738.347 55.045 737.698 55.3568C737.146 55.6518 736.448 55.9719 735.604 56.3169C734.857 56.6453 733.752 56.9345 732.289 57.1845C730.436 57.5012 729.393 56.9768 729.159 55.6115C729.026 54.8313 729.316 54.1794 730.03 53.656C730.841 53.1159 732.319 52.6625 734.465 52.2958C735.928 52.0458 737.009 51.9112 737.708 51.8921C738.505 51.8563 739.196 51.7884 739.781 51.6884C742.707 51.1884 745.247 49.901 747.402 47.8264C749.557 45.7518 751.255 43.3537 752.496 40.6322C753.721 37.8132 754.522 34.8658 754.9 31.79C755.375 28.6975 755.388 25.8347 754.938 23.2014C754.304 19.4954 753.251 16.5638 751.778 14.4065C750.306 12.2492 748.168 10.607 745.366 9.47991C741.396 13.2699 738.039 17.708 735.295 22.7943C732.534 27.783 730.116 33.0143 728.04 38.4881C725.964 43.962 724.043 49.4596 722.276 54.981C720.51 60.5024 718.636 65.6908 716.655 70.5462C714.53 75.7274 711.933 81.0896 708.865 86.6326C705.797 92.1756 702.256 97.2977 698.242 101.999C694.227 106.7 689.706 110.785 684.678 114.254C679.73 117.609 674.233 119.803 668.187 120.836C665.651 121.27 663.26 121.377 661.015 121.159C658.753 120.843 656.692 120.241 654.834 119.354C653.074 118.45 651.63 117.342 650.502 116.029C649.358 114.619 648.636 113.036 648.336 111.28C648.052 109.622 648.404 108.157 649.391 106.884C650.361 105.514 651.675 104.687 653.333 104.404C656.942 103.787 659.046 105.234 659.646 108.745C659.813 109.72 659.727 110.689 659.39 111.65C659.035 112.513 658.925 113.335 659.058 114.115C659.342 115.773 660.226 117.128 661.71 118.179C663.195 119.23 665.497 119.489 668.618 118.956C672.519 118.289 676.263 116.997 679.85 115.079C683.437 113.161 686.817 110.325 689.989 106.571C693.162 102.817 696.208 98.0301 699.129 92.2112C702.13 86.2781 704.995 78.9629 707.724 70.2657C709.876 63.474 712.071 57.227 714.308 51.5248C716.643 45.8058 719.191 40.452 721.952 35.4633C724.81 30.4579 727.971 25.7522 731.434 21.3462C734.897 16.9402 738.791 12.7113 743.117 8.65959C738.493 7.44241 733.725 6.85205 728.813 6.88852C723.9 6.92499 719.055 7.35157 714.276 8.16825C708.815 9.1016 703.324 10.7426 697.803 13.0914C700.396 14.7561 702.463 17.1631 704.005 20.3123C705.645 23.4449 706.715 26.474 707.215 29.3998C708.115 34.6663 707.812 40.2386 706.307 46.1167C704.9 51.9782 702.572 57.445 699.324 62.5171C696.075 67.5891 692.059 71.9893 687.276 75.7176C682.476 79.3483 677.199 81.6554 671.445 82.6387C667.057 83.3887 663.077 82.7138 659.506 80.6139C656.033 78.4974 653.854 74.8547 652.971 69.6858C652.021 64.1268 652.665 58.4961 654.902 52.7939C657.221 46.9774 660.451 41.5069 664.594 36.3824C668.721 31.1604 673.402 26.546 678.64 22.5393C683.958 18.4185 689.142 15.2741 694.192 13.1062C691.535 11.6532 688.725 10.7783 685.763 10.4814C682.785 10.087 679.833 10.1398 676.907 10.6398C673.006 11.3065 669.352 12.5334 665.943 14.3204C662.615 15.9932 659.55 18.0227 656.745 20.4091C654.022 22.6813 651.633 25.1472 649.578 27.807C647.523 30.4668 645.916 33.1003 644.755 35.7077C643.062 39.3094 641.814 42.283 641.01 44.6286C640.287 46.86 639.79 48.6513 639.52 50.0025C639.232 51.2561 639.081 52.1351 639.067 52.6394C639.036 53.0462 638.874 53.2746 638.582 53.3246C638.094 53.4079 637.809 53.2058 637.725 52.7181C637.659 52.328 637.96 50.5701 638.631 47.4443C639.382 44.2043 640.911 40.2291 643.217 35.5188C644.701 32.4547 646.551 29.4786 648.768 26.5904C651.065 23.588 653.616 20.8937 656.42 18.5073C659.322 16.1043 662.485 14.0581 665.911 12.3686C669.336 10.6791 672.95 9.50938 676.754 8.85937C680.07 8.29269 683.38 8.27907 686.684 8.81852C690.085 9.3413 693.229 10.4101 696.115 12.0248C699.2 10.6945 702.27 9.56771 705.324 8.64425C708.361 7.62328 711.44 6.84612 714.561 6.31277C724.899 4.54607 735.074 4.76447 745.087 6.96798C746.595 5.8069 748.143 4.58872 749.732 3.31345C751.418 2.02151 753.042 1.24221 754.602 0.975533C754.992 0.908866 755.221 1.07058 755.287 1.46069C755.321 1.65574 755.159 1.88413 754.802 2.14585C754.429 2.31005 753.877 2.6051 753.147 3.03102C752.497 3.34274 751.686 3.88285 750.713 4.65134C749.724 5.32231 748.581 6.27044 747.285 7.49571C751.634 8.86042 755.31 10.9924 758.315 13.8916C761.32 16.7908 763.197 20.4348 763.947 24.8235C764.481 27.9444 764.233 30.8976 763.203 33.6833C762.174 36.469 760.655 39.0371 758.648 41.3877C756.64 43.7382 754.331 45.7891 751.719 47.5403C749.108 49.2915 746.495 50.7417 743.881 51.8911L743.931 52.1837ZM655.387 69.7246C656.053 73.6257 657.659 76.5632 660.205 78.5372C662.848 80.4945 666.413 81.0898 670.899 80.3231C675.678 79.5064 680.141 77.1376 684.289 73.2168C688.42 69.1984 691.947 64.5806 694.87 59.3635C697.874 54.0322 700.047 48.5417 701.39 42.8919C702.831 37.2255 703.184 32.2467 702.451 27.9555C701.851 24.4446 700.952 21.5367 699.756 19.2318C698.656 16.9103 697.356 15.1752 695.855 14.0265C691.178 16.0302 686.245 18.8808 681.055 22.5782C675.866 26.2756 671.182 30.5891 667.006 35.5185C662.83 40.448 659.583 45.821 657.264 51.6374C654.946 57.4539 654.32 63.4829 655.387 69.7246Z" fill="#00F1B7"/>
<path d="M123.052 177.739C121.557 180.191 119.274 183.203 116.204 186.776C113.128 190.247 109.741 193.685 106.045 197.09C102.444 200.387 98.7682 203.278 95.0163 205.763C91.3605 208.139 88.1004 209.414 85.236 209.586C81.9623 209.783 79.6562 208.998 78.3177 207.231C76.9731 205.361 76.2083 202.891 76.0235 199.822C75.8017 196.14 76.2479 192.468 77.3622 188.807C78.4765 185.147 79.907 181.621 81.6536 178.23C83.394 174.737 85.3482 171.385 87.5163 168.175C89.6783 164.861 91.6418 161.663 93.4069 158.579C95.1658 155.393 96.627 152.379 97.7906 149.537C98.9542 146.695 99.4559 143.944 99.2957 141.284C99.1602 139.033 98.5316 137.12 97.41 135.545C96.2884 133.97 94.8815 132.771 93.1892 131.949C91.5931 131.018 89.7597 130.41 87.689 130.124C85.6122 129.736 83.6019 129.6 81.6582 129.717C77.2592 129.982 72.2538 131.259 66.642 133.548C61.0302 135.836 55.7684 138.823 50.8566 142.507C45.9448 146.191 41.8373 150.442 38.534 155.261C35.333 160.074 33.8896 165.09 34.2038 170.307C34.4009 173.581 35.7887 176.167 38.3671 178.065C40.9394 179.861 43.8113 180.663 46.9826 180.472C51.2793 180.213 55.7997 178.555 60.5438 175.497C65.2818 172.337 69.7412 167.962 73.9221 162.371C76.301 159.25 78.066 156.166 79.2173 153.119C80.3685 150.073 81.1833 147.405 81.6616 145.118C82.236 142.722 82.5824 140.801 82.7007 139.357C82.9214 137.906 83.2875 137.165 83.799 137.135C84.5151 137.091 84.8978 137.479 84.9471 138.298C84.984 138.911 84.8688 140.407 84.6012 142.785C84.436 145.156 83.9374 147.958 83.1054 151.191C82.2672 154.322 81.0833 157.679 79.5536 161.262C78.024 164.845 75.9162 168.206 73.2305 171.345C70.5385 174.382 67.2562 176.992 63.3835 179.176C59.5046 181.258 54.8031 182.465 49.2788 182.798C44.266 183.1 40.2504 182.058 37.2319 179.673C34.2135 177.288 32.5964 174.305 32.3808 170.725C32.1775 167.349 32.7445 163.978 34.0819 160.612C35.5216 157.24 37.482 153.99 39.9632 150.863C42.4444 147.736 45.299 144.843 48.5271 142.185C51.8513 139.418 55.3537 137.051 59.0341 135.084C62.7083 133.014 66.4072 131.354 70.1308 130.103C73.9566 128.846 77.5575 128.116 80.9335 127.913C87.4808 127.518 92.7967 128.841 96.8813 131.881C100.96 134.818 103.248 140.43 103.747 148.716C103.945 151.99 103.477 155.303 102.344 158.657C101.211 162.011 99.7716 165.383 98.025 168.774C96.2784 172.164 94.3242 175.516 92.1622 178.829C89.9941 182.04 88.0275 185.187 86.2625 188.271C84.4912 191.253 83.0177 194.062 81.8418 196.7C80.6659 199.337 80.1426 201.73 80.272 203.879C80.3644 205.413 80.8894 206.46 81.8471 207.018C82.8048 207.576 83.9998 207.813 85.432 207.726C87.0688 207.628 89.3755 206.719 92.3521 204.999C95.4311 203.274 98.7319 200.97 102.255 198.089C105.88 195.201 109.477 191.853 113.046 188.044C116.712 184.127 119.899 179.931 122.607 175.456C129.62 164.048 136.05 154.882 141.896 147.959C147.838 140.927 153.006 135.534 157.401 131.778C161.795 128.023 165.342 125.55 168.043 124.361C170.839 123.063 172.647 122.39 173.465 122.34C174.181 122.297 174.558 122.582 174.595 123.196C174.626 123.708 174.142 124.199 173.143 124.67C172.139 125.038 170.789 125.633 169.093 126.454C167.397 127.275 165.415 128.472 163.149 130.046C160.876 131.518 158.432 133.564 155.818 136.186C153.306 138.801 150.735 142.139 148.104 146.199C145.468 150.156 142.887 155.035 140.361 160.834C139.192 163.574 137.752 166.946 136.042 170.951C134.326 174.853 132.473 179.02 130.481 183.452C128.489 187.884 126.35 192.428 124.063 197.083C121.879 201.732 119.631 206.18 117.32 210.426C115.112 214.666 112.932 218.545 110.783 222.062C108.633 225.58 106.597 228.424 104.674 230.593C96.8867 239.378 87.6523 246.3 76.9709 251.358C66.398 256.513 55.2293 259.444 43.4646 260.152C38.6565 260.442 33.8082 260.067 28.92 259.026C24.0379 258.088 19.573 256.406 15.5254 253.981C11.4777 251.555 8.10617 248.421 5.41067 244.579C2.71516 240.737 1.20415 236.105 0.877633 230.683C0.575755 225.671 1.57729 220.99 3.88223 216.642C6.28332 212.185 9.38633 208.302 13.1913 204.992C17.0985 201.677 21.4038 199.005 26.1073 196.976C30.8107 194.947 35.4131 193.798 39.9143 193.526C44.4156 193.255 48.5446 193.623 52.3014 194.629C56.1605 195.628 59.4335 197.125 62.1204 199.12C64.9096 201.108 67.1035 203.44 68.702 206.116C70.3006 208.792 71.1923 211.664 71.3771 214.733C71.6297 218.927 70.8827 222.72 69.1361 226.111C67.3895 229.501 65.0495 232.414 62.116 234.85C59.1763 237.183 55.7966 239.029 51.977 240.389C48.2596 241.742 44.5083 242.533 40.7231 242.761C39.3932 242.841 38.006 242.821 36.5615 242.703C35.1169 242.585 33.7716 242.409 32.5255 242.176C31.2794 241.943 30.2379 241.698 29.401 241.44C28.6664 241.176 28.2899 240.891 28.2714 240.584C28.2406 240.073 28.4809 239.802 28.9924 239.771C29.2994 239.752 29.6636 239.833 30.0851 240.013C30.6089 240.187 31.3374 240.348 32.2704 240.497C33.3057 240.64 34.5968 240.768 36.1437 240.88C37.7928 240.986 39.845 240.965 42.3002 240.817C45.4716 240.626 48.7113 239.867 52.0195 238.538C55.3277 237.209 58.2532 235.493 60.796 233.389C63.3326 231.183 65.3842 228.595 66.9508 225.626C68.5175 222.657 69.1929 219.382 68.9773 215.802C68.7679 212.323 67.8762 209.451 66.3022 207.184C64.8245 204.809 62.866 202.976 60.4268 201.686C58.0899 200.389 55.4196 199.523 52.4159 199.088C49.5084 198.544 46.5712 198.362 43.6045 198.541C38.7963 198.83 33.9863 199.941 29.1744 201.874C24.4648 203.8 20.2556 206.364 16.5468 209.565C12.9403 212.759 10.0388 216.579 7.84232 221.023C5.74814 225.462 4.85814 230.29 5.17234 235.507C5.44958 240.11 6.91131 243.924 9.55753 246.948C12.306 249.965 15.5803 252.334 19.3802 254.056C23.2885 255.874 27.3645 257.066 31.6082 257.632C35.858 258.3 39.6709 258.533 43.0468 258.329C51.2309 257.837 58.4839 256.373 64.8057 253.939C71.1336 251.607 76.7473 248.497 81.6467 244.608C86.6546 240.816 91.0629 236.443 94.8716 231.491C98.7764 226.43 102.353 221.03 105.601 215.29C108.842 209.448 111.867 203.413 114.675 197.187C117.477 190.858 120.378 184.471 123.378 178.028L123.052 177.739Z" fill="#00F1B7"/>
<path d="M873.374 172.425C870.067 171.451 866.871 169.629 863.786 166.96C860.484 167.982 857.367 168.574 854.438 168.735C850.148 168.971 846.143 168.665 842.423 167.818C838.703 166.971 835.431 165.679 832.607 163.942C829.783 162.205 827.511 160.017 825.792 157.378C824.067 154.634 823.109 151.533 822.919 148.074C822.7 144.092 823.449 140.529 825.166 137.386C826.882 134.243 829.148 131.543 831.963 129.286C834.777 127.029 837.987 125.275 841.592 124.026C845.196 122.777 848.777 122.054 852.335 121.859C857.567 121.572 862.644 122.291 867.567 124.018C872.484 125.641 877.019 127.967 881.174 130.998C885.047 128.893 889.088 126.989 893.297 125.286C897.506 123.583 901.913 122.605 906.517 122.352C909.342 122.197 911.574 122.705 913.213 123.876C914.95 124.937 915.9 126.935 916.061 129.87C916.193 132.28 915.39 134.848 913.65 137.571C911.905 140.19 909.634 142.785 906.836 145.357C904.039 147.929 900.867 150.363 897.32 152.66C893.772 154.958 890.266 157.043 886.801 158.915C883.329 160.683 880.053 162.177 876.971 163.397C873.884 164.513 871.402 165.175 869.524 165.383C870.145 167.136 871.016 168.665 872.137 169.97C873.358 171.165 874.962 171.707 876.95 171.598C877.473 171.569 878.2 171.424 879.13 171.163C880.165 170.896 881.362 170.725 882.722 170.65C884.187 170.57 885.614 170.754 887.003 171.204C888.387 171.548 889.096 172.035 889.13 172.664C889.205 174.026 888.039 174.774 885.633 174.906C882.912 175.055 880.907 174.85 879.616 174.29C878.326 173.73 877.21 173.476 876.269 173.528C873.129 173.7 869.417 174.903 865.132 177.136C860.946 179.258 856.965 182.263 853.19 186.149C849.515 189.925 846.46 194.509 844.028 199.898C841.589 205.184 840.546 211.023 840.897 217.416C841.219 223.286 842.615 227.677 845.084 230.59C847.657 233.497 851.423 235.183 856.382 235.646C856.12 234.714 855.909 233.727 855.747 232.685C855.584 231.643 855.475 230.597 855.417 229.549C855.089 223.575 855.624 218.027 857.021 212.904C858.419 207.781 860.43 203.308 863.054 199.484C865.677 195.661 868.766 192.653 872.318 190.46C875.97 188.157 879.784 186.896 883.76 186.678C887.632 186.465 890.689 187.664 892.931 190.274C895.174 192.884 896.393 195.971 896.588 199.534C896.842 204.146 895.831 208.669 893.556 213.104C891.275 217.435 888.238 221.386 884.446 224.958C880.753 228.42 876.61 231.329 872.016 233.683C867.417 235.933 862.975 237.229 858.691 237.569C859.189 240.906 859.937 244.019 860.936 246.907C862.039 249.79 862.605 251.494 862.633 252.018C862.651 252.332 862.398 252.504 861.875 252.533C861.456 252.555 861.116 252.101 860.855 251.169C860.699 250.232 860.13 248.476 859.149 245.902C858.545 244.463 858.043 242.966 857.643 241.411C857.353 239.955 857.075 238.709 856.808 237.673C853.25 237.868 849.876 237.58 846.685 236.81C843.593 235.928 840.844 234.607 838.438 232.847C836.033 231.087 834.072 228.829 832.556 226.074C831.14 223.209 830.328 219.889 830.12 216.116C829.809 210.456 830.94 205.243 833.512 200.476C836.182 195.599 839.672 191.307 843.982 187.601C848.285 183.791 853.045 180.638 858.261 178.144C863.47 175.545 868.514 173.744 873.392 172.74L873.374 172.425ZM914.117 128.873C913.933 125.519 911.434 123.974 906.621 124.238C904.842 124.336 902.976 124.754 901.022 125.492C899.168 126.12 897.322 126.904 895.484 127.846C893.647 128.788 891.868 129.832 890.146 130.978C888.425 132.124 886.858 133.209 885.445 134.232C887.333 136.126 889.111 137.921 890.778 139.616C892.44 141.207 893.276 142.107 893.288 142.317C893.323 142.946 893.078 143.274 892.555 143.303C892.346 143.315 892.076 143.172 891.744 142.875C891.518 142.572 891.126 142.12 890.568 141.52C890.01 140.92 889.179 140.124 888.075 139.134C887.07 138.033 885.688 136.742 883.927 135.262C879.507 138.869 875.849 142.959 872.952 147.534C870.049 152.003 868.744 156.911 869.037 162.256C873.706 161.264 878.706 159.623 884.037 157.332C889.369 155.042 894.312 152.353 898.865 149.264C903.418 146.176 907.12 142.871 909.97 139.35C912.919 135.719 914.301 132.227 914.117 128.873ZM826.81 144.392C827.012 148.06 827.917 151.164 829.526 153.704C831.239 156.238 833.4 158.327 836.01 159.97C838.613 161.51 841.612 162.606 845.006 163.261C848.401 163.915 851.981 164.139 855.748 163.932C856.585 163.886 857.475 163.837 858.416 163.786C859.352 163.629 860.288 163.473 861.224 163.316C861.079 162.588 860.937 161.913 860.798 161.29C860.758 160.556 860.715 159.77 860.669 158.931C860.507 155.997 860.933 153.24 861.946 150.661C863.058 147.972 864.547 145.472 866.414 143.162C868.281 140.852 870.372 138.792 872.687 136.983C874.996 135.069 877.319 133.417 879.656 132.027C875.618 129.2 871.25 127.075 866.554 125.651C861.853 124.122 857.043 123.493 852.125 123.763C849.613 123.901 846.811 124.475 843.718 125.486C840.724 126.386 837.91 127.697 835.276 129.419C832.746 131.135 830.658 133.247 829.012 135.755C827.366 138.264 826.632 141.142 826.81 144.392ZM894.705 199.638C894.527 196.389 893.546 193.814 891.762 191.915C889.973 189.911 887.404 189.001 884.055 189.184C880.916 189.357 877.747 190.898 874.549 193.807C871.344 196.611 868.494 200.131 865.998 204.368C863.502 208.605 861.497 213.183 859.983 218.102C858.469 223.021 857.83 227.63 858.066 231.927C858.107 232.66 858.144 233.342 858.179 233.971C858.213 234.599 858.297 235.173 858.431 235.691C862.523 235.677 866.767 234.603 871.163 232.469C875.553 230.23 879.542 227.383 883.13 223.927C886.719 220.471 889.604 216.633 891.786 212.413C893.968 208.193 894.941 203.935 894.705 199.638Z" fill="#00F1B7"/>
</svg>
