<?xml version="1.0" encoding="utf-8"?>
<!-- Generator: Adobe Illustrator 24.1.3, SVG Export Plug-In . SVG Version: 6.00 Build 0)  -->
<svg version="1.1" id="Слой_1" xmlns="http://www.w3.org/2000/svg" xmlns:xlink="http://www.w3.org/1999/xlink" x="0px" y="0px"
	 viewBox="0 0 1277 319" style="enable-background:new 0 0 1277 319;" xml:space="preserve">
<style type="text/css">
	.st0{fill:#FF0000;}
</style>
<g>
	<path class="st0" d="M530.2,0c26.4,0,48.1,4.8,65.1,14.3c17,9.5,25.5,20.6,25.5,33.3c0,13.1-8.7,24.3-26,33.6
		c-17.4,9.3-38.9,13.9-64.6,13.9c-25.1,0-46.4-4.6-64.2-13.9c-17.7-9.3-26.6-20.5-26.6-33.6c0-13.2,8.7-24.4,26-33.6
		C482.9,4.7,504.4,0,530.2,0z M530.5,2.7c-15.8,0-28.5,4.2-37.9,12.5c-9.4,8.3-14.1,19.1-14.1,32.4c0,13.2,4.9,24,14.7,32.4
		c9.8,8.3,22.2,12.5,37.4,12.5c15.8,0,28.4-4.2,37.8-12.5c9.4-8.3,14.1-19.1,14.1-32.4c0-13.3-4.9-24.1-14.7-32.4
		C558,6.9,545.6,2.7,530.5,2.7z"/>
	<path class="st0" d="M694.9,46.2h38.8c19.3,0,32.1-1.9,38.6-5.8c6.4-3.9,9.6-8.6,9.6-14.2v-2c0-5.6-3.3-10.3-9.9-14.2
		c-6.6-3.8-19.8-5.8-39.6-5.8h-37.4V46.2z M755.2,1.9c23.5,0,39.8,2.3,48.9,6.9c9.2,4.6,13.8,9.7,13.8,15.2v2.9
		c0,6.2-6.3,11.3-19,15.5c-12.6,4.2-28.1,6.2-46.4,6.2h-19.2c12.1,4.2,20.8,7.1,26,8.5c5.3,1.4,12.1,2.6,20.6,3.9l25.9,22.1
		c4.1,3.3,8.7,5.4,13.7,6.4c5,1,11,1.4,17.9,1.4v2.6h-57.1L728,48.6h-33.2v23.7c0,6.4,2,11.1,6,14.1c4.1,3,12.6,4.5,25.6,4.5v2.6
		h-95v-2.6c13,0,21.5-1.5,25.5-4.5c4.1-3,6.2-7.7,6.2-14.1V23c0-6.4-2.1-11.1-6.2-14.1c-4-3-12.5-4.5-25.5-4.5V1.9H755.2z"/>
</g>
<g>
	<path class="st0" d="M232.5,114.2h96.9v2.6h-9.3c-6.3,0-10.5,0.5-12.6,1.6c-2.1,1.1-3.1,2.5-3.1,4.3c0,1.2,1.8,3.4,5.3,6.4
		c3.6,3,9,7.4,16.1,13l23.4,19.6l36.7-29.7c1.3-1.4,2.1-2.4,2.5-3.2c0.4-0.8,0.7-1.7,0.8-2.6c0-3.5-2.3-5.9-7-7.3
		c-4.7-1.4-12.8-2.2-24.3-2.2v-2.6h77.8v2.6c-6.3,0-13.6,1.3-22,3.9c-8.4,2.5-16.3,6.8-23.8,12.7l-39,31.7v16.6
		c0,9.4,2.4,15.4,7.3,17.9c4.9,2.4,15,3.7,30.2,3.7v2.6H280.7v-2.6c18.2,0,29.2-1.6,32.8-4.9c3.7-3.3,5.5-9,5.5-16.9v-14.4
		l-48.7-40.2c-3-2.6-7.2-4.9-12.7-6.9c-5.5-2.1-13.9-3.1-25.2-3.1V114.2z"/>
	<path class="st0" d="M528.8,112.3c26.4,0,48.1,4.8,65.1,14.3c17,9.5,25.5,20.6,25.5,33.3c0,13.1-8.7,24.3-26,33.6
		c-17.4,9.3-38.9,13.9-64.6,13.9c-25.1,0-46.4-4.6-64.2-13.9c-17.7-9.3-26.6-20.5-26.6-33.6c0-13.2,8.7-24.4,26-33.6
		C481.4,116.9,503,112.3,528.8,112.3z M529.1,115c-15.8,0-28.5,4.2-37.9,12.5c-9.4,8.3-14.1,19.1-14.1,32.4c0,13.2,4.9,24,14.7,32.4
		c9.8,8.3,22.2,12.5,37.4,12.5c15.8,0,28.4-4.2,37.8-12.5c9.4-8.3,14.1-19.1,14.1-32.4c0-13.3-4.9-24.1-14.7-32.4
		C556.6,119.1,544.2,115,529.1,115z"/>
	<path class="st0" d="M624.7,114.2h105v2.6c-14.8,0-25.1,1.1-30.9,3.2c-5.7,2.1-8.5,8.3-8.5,18.6V175c0,11.3,4.3,19.2,13,23.5
		c8.7,4.3,22.2,6.5,40.5,6.5c15.4,0,28.3-2.3,38.7-6.8c10.4-4.6,15.5-12.1,15.5-22.6v-27.4c0-13.5-3.2-22.2-9.7-25.9
		c-6.4-3.7-15.8-5.6-28.3-5.6v-2.6h73.4v2.6c-9.2,0-16.8,1.9-22.8,5.8c-6,3.8-9,11.1-9,21.9v33.1c0,10-5.8,17.5-17.3,22.6
		c-11.5,5.1-27.5,7.6-48,7.6c-29.4,0-49.7-2.8-60.9-8.4c-11.2-5.6-16.8-12.3-16.8-20.3v-40.3c0-10.4-3-16.7-9.1-18.8
		c-6-2.1-14.3-3.2-24.8-3.2V114.2z"/>
	<path class="st0" d="M901.9,158.5h38.8c19.3,0,32.2-1.9,38.6-5.8c6.4-3.9,9.6-8.6,9.6-14.2v-2c0-5.6-3.3-10.3-9.9-14.2
		c-6.6-3.8-19.8-5.8-39.6-5.8h-37.4V158.5z M962.2,114.2c23.5,0,39.8,2.3,48.9,6.9c9.2,4.6,13.8,9.7,13.8,15.2v2.9
		c0,6.2-6.3,11.3-19,15.5c-12.6,4.2-28.1,6.2-46.4,6.2h-19.2c12.1,4.2,20.8,7.1,26,8.5c5.3,1.4,12.1,2.6,20.6,3.9l25.9,22.1
		c4.1,3.3,8.7,5.4,13.7,6.4c5,1,11,1.4,17.9,1.4v2.6h-57.1L935,160.9h-33.2v23.7c0,6.4,2,11.1,6,14.1c4.1,3,12.6,4.5,25.6,4.5v2.6
		h-95v-2.6c13,0,21.4-1.5,25.5-4.5c4.1-3,6.1-7.7,6.1-14.1v-49.3c0-6.4-2-11.1-6.1-14.1c-4-3-12.5-4.5-25.5-4.5v-2.6H962.2z"/>
</g>
<g>
	<path class="st0" d="M187,228.2v86.4h24.4c29.7,0,48.8-4,57.5-11.9c8.6-8,13-17.3,13-28.1v-4.9c0-13.4-5.4-23.7-16.1-30.7
		c-10.7-7.1-29.1-10.7-55.4-10.7H187z M227.9,225.8c29.4,0,51.9,4.9,67.7,14.6c15.8,9.7,23.8,20,23.8,30.8v2.9
		c0,12.1-8.5,22.4-25.5,30.7c-17,8.3-37,12.5-60.1,12.5H122.2v-2.6c14,0,23-1.5,27-4.5c4.1-3,6.2-7.7,6.2-14.1v-49.3
		c0-6.4-2.1-11.1-6.2-14.1c-4-3-13-4.5-27-4.5v-2.6H227.9z"/>
	<path class="st0" d="M397.3,273.9v40.9h14.6c30.1,0,50.5-3.3,61.1-9.9c10.7-6.6,17.8-15.1,21.2-25.4h4.4v37.8H333.8v-2.6
		c13,0,21.5-1.5,25.5-4.5c4.1-3,6.2-7.7,6.2-14.1v-49.3c0-6.4-2.1-11.1-6.2-14.1c-4-3-12.5-4.5-25.5-4.5v-2.6h160.8v35.6H491
		c-6.3-13.9-14.5-22.8-24.4-26.9c-9.9-4.2-26.6-6.2-50.1-6.2h-19.1v43.2c14.4,0,25.4-2.3,33-6.9c7.6-4.6,12.1-11.9,13.4-22h4v60.2
		h-4c-1.3-10.1-5.8-17.4-13.4-22C422.7,276.2,411.7,273.9,397.3,273.9z"/>
	<path class="st0" d="M574.8,225.8l57,69.8l55.8-69.8h59.6v2.6c-13.7,0-22.6,1.5-26.7,4.5c-4,3-6,7.7-6,14.1v49.3
		c0,6.4,2,11.1,6,14.1c4.1,3,13,4.5,26.7,4.5v2.6h-97.1v-2.6c14.4,0,23.6-1.5,27.6-4.5c4.1-3,6.2-7.7,6.2-14.1v-60.1l-64.9,81.2
		h-4.4L549,235.9v56.4c0,6.4,2.6,11.8,7.7,16.1c5.2,4.3,13.5,6.4,25.1,6.4v2.6h-69.9v-2.6c11.5,0,19.8-1.9,24.9-5.8
		c5.2-3.8,7.8-9,7.8-15.4v-46.7c0-6.4-2.1-11.1-6.2-14.1c-4-3-12.9-4.5-26.6-4.5v-2.6H574.8z"/>
	<path class="st0" d="M849.1,223.9c26.4,0,48.1,4.8,65.1,14.3c17,9.5,25.5,20.6,25.5,33.3c0,13.1-8.7,24.3-26,33.6
		c-17.4,9.3-38.9,13.9-64.6,13.9c-25.1,0-46.4-4.6-64.2-13.9c-17.7-9.3-26.6-20.5-26.6-33.6c0-13.2,8.7-24.4,26-33.6
		C801.8,228.5,823.3,223.9,849.1,223.9z M849.4,226.6c-15.8,0-28.5,4.2-37.9,12.5c-9.4,8.3-14.1,19.1-14.1,32.4
		c0,13.2,4.9,24,14.7,32.4c9.8,8.3,22.2,12.5,37.4,12.5c15.8,0,28.4-4.2,37.8-12.5c9.4-8.3,14.1-19.1,14.1-32.4
		c0-13.3-4.9-24.1-14.7-32.4C876.9,230.7,864.5,226.6,849.4,226.6z"/>
	<path class="st0" d="M950.6,225.8h60.5l105,65.4v-32.4c0-12.4-3.4-20.5-10.2-24.5c-6.8-3.9-15.3-5.9-25.6-5.9v-2.6h74.5v2.6
		c-10.1,0-18.4,1.8-25,5.3c-6.5,3.5-9.7,12.1-9.7,25.7v58.9h-3.7l-130.1-80.8v51.4c0,11.8,3.6,19.1,10.8,21.8s17,4.1,29.4,4.1v2.6
		h-78.8v-2.6c8.4,0,16.2-1.3,23.5-3.9c7.3-2.6,11-8.9,11-18.8v-44.3c0-7.9-2.8-13-8.3-15.5c-5.5-2.5-13.2-3.8-23.3-3.8V225.8z"/>
</g>
</svg>
