<svg width="1277" height="207" viewBox="0 0 1277 207" fill="none" xmlns="http://www.w3.org/2000/svg">
<path d="M90.7236 0C117.149 0 138.858 4.76364 155.85 14.2909C172.843 23.7745 181.339 34.8751 181.339 47.5927C181.339 60.7037 172.663 71.9135 155.31 81.2223C137.958 90.4874 116.429 95.1199 90.7236 95.1199C65.6666 95.1199 44.2818 90.4874 26.5691 81.2223C8.85635 71.9135 0 60.7037 0 47.5927C0 34.4381 8.67635 23.2282 26.029 13.9632C43.3817 4.65439 64.9466 0 90.7236 0ZM91.0476 2.68774C75.207 2.68774 62.5705 6.8614 53.1381 15.2087C43.7058 23.5123 38.9896 34.307 38.9896 47.5927C38.9896 60.8348 43.8858 71.6295 53.6782 79.9768C63.4705 88.2804 75.927 92.4322 91.0476 92.4322C106.816 92.4322 119.417 88.2804 128.849 79.9768C138.282 71.6295 142.998 60.8348 142.998 47.5927C142.998 34.307 138.102 23.5123 128.309 15.2087C118.517 6.8614 106.096 2.68774 91.0476 2.68774Z" fill="#FF0000"/>
<path d="M255.387 46.2161H294.161C313.457 46.2161 326.31 44.2931 332.718 40.4473C339.126 36.5577 342.331 31.8377 342.331 26.2874V24.2553C342.331 18.6612 339.018 13.9413 332.394 10.0954C325.77 6.24955 312.557 4.32661 292.757 4.32661H255.387V46.2161ZM315.761 1.90109C339.234 1.90109 355.543 4.21735 364.687 8.84989C373.904 13.4824 378.512 18.552 378.512 24.0586V26.943C378.512 33.1051 372.176 38.2621 359.503 42.4139C346.903 46.5657 331.422 48.6416 313.061 48.6416H293.837C305.933 52.8808 314.609 55.6997 319.866 57.0982C325.122 58.453 331.998 59.7422 340.494 60.9659L366.415 83.0578C370.52 86.3356 375.092 88.4552 380.132 89.4167C385.172 90.3781 391.148 90.8589 398.061 90.8589V93.4155H340.926L288.544 48.6416H255.387V72.3069C255.387 78.7312 257.403 83.4293 261.435 86.4011C265.539 89.3729 274.072 90.8589 287.032 90.8589V93.4155H191.988V90.8589C204.949 90.8589 213.445 89.3729 217.478 86.4011C221.582 83.4293 223.634 78.7312 223.634 72.3069V23.0097C223.634 16.5853 221.582 11.8873 217.478 8.91544C213.445 5.94363 204.949 4.45772 191.988 4.45772V1.90109H315.761Z" fill="#FF0000"/>
<path d="M464.937 1.90109H561.817V4.45772H552.529C546.192 4.45772 541.98 5.00401 539.892 6.09659C537.804 7.18917 536.76 8.63137 536.76 10.4232C536.76 11.6469 538.524 13.7883 542.052 16.8476C545.652 19.8631 551.016 24.2115 558.145 29.893L581.582 49.4938L618.303 19.7975C619.599 18.4427 620.427 17.372 620.787 16.5853C621.219 15.755 621.471 14.8809 621.543 13.9632C621.543 10.5106 619.203 8.06323 614.523 6.62103C609.843 5.17882 601.742 4.45772 590.222 4.45772V1.90109H667.985V4.45772C661.721 4.45772 654.377 5.74696 645.952 8.32545C637.528 10.8602 629.608 15.0994 622.191 21.0431L583.202 52.706V69.2914C583.202 78.7312 585.65 84.6967 590.546 87.1878C595.442 89.6352 605.523 90.8589 620.787 90.8589V93.4155H513.215V90.8589C531.432 90.8589 542.376 89.22 546.048 85.9423C549.72 82.6208 551.557 76.9831 551.557 69.0291V54.6726L502.847 14.4876C499.894 11.9091 495.646 9.59284 490.102 7.53879C484.63 5.48475 476.241 4.45772 464.937 4.45772V1.90109Z" fill="#FF0000"/>
<path d="M761.258 0C787.683 0 809.392 4.76364 826.384 14.2909C843.377 23.7745 851.873 34.8751 851.873 47.5927C851.873 60.7037 843.197 71.9135 825.844 81.2223C808.492 90.4874 786.963 95.1199 761.258 95.1199C736.201 95.1199 714.816 90.4874 697.103 81.2223C679.39 71.9135 670.534 60.7037 670.534 47.5927C670.534 34.4381 679.21 23.2282 696.563 13.9632C713.916 4.65439 735.481 0 761.258 0ZM761.582 2.68774C745.741 2.68774 733.105 6.8614 723.672 15.2087C714.24 23.5123 709.524 34.307 709.524 47.5927C709.524 60.8348 714.42 71.6295 724.212 79.9768C734.005 88.2804 746.461 92.4322 761.582 92.4322C777.35 92.4322 789.951 88.2804 799.383 79.9768C808.816 71.6295 813.532 60.8348 813.532 47.5927C813.532 34.307 808.636 23.5123 798.843 15.2087C789.051 6.8614 776.63 2.68774 761.582 2.68774Z" fill="#FF0000"/>
<path d="M857.122 1.90109H962.103V4.45772C947.27 4.45772 936.974 5.52845 931.213 7.6699C925.525 9.76766 922.681 15.9735 922.681 26.2874V62.7359C922.681 74.055 927.001 81.8997 935.641 86.27C944.354 90.5966 957.854 92.7599 976.143 92.7599C991.552 92.7599 1004.44 90.4874 1014.81 85.9423C1025.18 81.3534 1030.36 73.8146 1030.36 63.3259V35.924C1030.36 22.376 1027.12 13.7446 1020.64 10.0299C1014.23 6.31511 1004.8 4.45772 992.344 4.45772V1.90109H1065.79V4.45772C1056.57 4.45772 1048.97 6.38066 1043 10.2265C1037.02 14.0724 1034.03 21.3708 1034.03 32.1218V65.227C1034.03 75.235 1028.27 82.7738 1016.75 87.8433C1005.23 92.9129 989.248 95.4477 968.799 95.4477C939.422 95.4477 919.117 92.6507 907.884 87.0567C896.652 81.4627 891.036 74.7105 891.036 66.8003V26.4841C891.036 16.0391 888.012 9.76766 881.963 7.6699C875.987 5.52845 867.707 4.45772 857.122 4.45772V1.90109Z" fill="#FF0000"/>
<path d="M1134.33 46.2161H1173.1C1192.4 46.2161 1205.25 44.2931 1211.66 40.4473C1218.07 36.5577 1221.27 31.8377 1221.27 26.2874V24.2553C1221.27 18.6612 1217.96 13.9413 1211.33 10.0954C1204.71 6.24955 1191.5 4.32661 1171.7 4.32661H1134.33V46.2161ZM1194.7 1.90109C1218.17 1.90109 1234.48 4.21735 1243.63 8.84989C1252.84 13.4824 1257.45 18.552 1257.45 24.0586V26.943C1257.45 33.1051 1251.11 38.2621 1238.44 42.4139C1225.84 46.5657 1210.36 48.6416 1192 48.6416H1172.78C1184.87 52.8808 1193.55 55.6997 1198.8 57.0982C1204.06 58.453 1210.94 59.7422 1219.43 60.9659L1245.35 83.0578C1249.46 86.3356 1254.03 88.4552 1259.07 89.4167C1264.11 90.3781 1270.09 90.8589 1277 90.8589V93.4155H1219.87L1167.48 48.6416H1134.33V72.3069C1134.33 78.7312 1136.34 83.4293 1140.37 86.4011C1144.48 89.3729 1153.01 90.8589 1165.97 90.8589V93.4155H1070.93V90.8589C1083.89 90.8589 1092.38 89.3729 1096.42 86.4011C1100.52 83.4293 1102.57 78.7312 1102.57 72.3069V23.0097C1102.57 16.5853 1100.52 11.8873 1096.42 8.91544C1092.38 5.94363 1083.89 4.45772 1070.93 4.45772V1.90109H1194.7Z" fill="#FF0000"/>
<path d="M191.556 116.207V202.608H215.965C245.631 202.608 264.783 198.631 273.424 190.677C282.064 182.723 286.384 173.349 286.384 162.554V157.637C286.384 144.22 281.02 133.972 270.292 126.892C259.635 119.768 241.166 116.207 214.885 116.207H191.556ZM232.49 113.781C261.867 113.781 284.44 118.654 300.209 128.4C316.049 138.102 323.97 148.372 323.97 159.211V162.095C323.97 174.244 315.473 184.493 298.481 192.84C281.488 201.144 261.471 205.296 238.43 205.296H126.754V202.739C140.722 202.739 149.723 201.253 153.755 198.281C157.859 195.309 159.911 190.611 159.911 184.187V134.89C159.911 128.465 157.859 123.767 153.755 120.796C149.723 117.824 140.722 116.338 126.754 116.338V113.781H232.49Z" fill="#FF0000"/>
<path d="M401.906 161.898V202.804H416.486C446.583 202.804 466.96 199.505 477.617 192.906C488.345 186.307 495.401 177.828 498.786 167.47H503.214V205.296H338.399V202.739C351.36 202.739 359.856 201.253 363.888 198.281C367.992 195.309 370.044 190.611 370.044 184.187V134.89C370.044 128.465 367.992 123.767 363.888 120.796C359.856 117.824 351.36 116.338 338.399 116.338V113.781H499.218V149.377H495.545C489.209 135.523 481.073 126.542 471.136 122.434C461.272 118.283 444.567 116.207 421.022 116.207H401.906V159.407C416.306 159.407 427.323 157.113 434.955 152.524C442.587 147.935 447.052 140.615 448.348 130.563H452.344V190.742H448.348C447.052 180.691 442.587 173.37 434.955 168.782C427.323 164.193 416.306 161.898 401.906 161.898Z" fill="#FF0000"/>
<path d="M579.422 113.781L636.448 183.597L692.286 113.781H751.905V116.338C738.224 116.338 729.332 117.824 725.227 120.796C721.195 123.767 719.179 128.465 719.179 134.89V184.187C719.179 190.611 721.195 195.309 725.227 198.281C729.332 201.253 738.224 202.739 751.905 202.739V205.296H654.809V202.739C669.209 202.739 678.426 201.253 682.458 198.281C686.562 195.309 688.614 190.611 688.614 184.187V124.073L623.703 205.296H619.275L553.609 123.877V180.254C553.609 186.678 556.165 192.032 561.277 196.315C566.461 200.597 574.813 202.739 586.334 202.739V205.296H516.455V202.739C527.976 202.739 536.292 200.816 541.404 196.97C546.588 193.124 549.18 187.989 549.18 181.565V134.89C549.18 128.465 547.128 123.767 543.024 120.796C538.992 117.824 530.136 116.338 516.455 116.338V113.781H579.422Z" fill="#FF0000"/>
<path d="M853.709 111.88C880.134 111.88 901.843 116.644 918.836 126.171C935.829 135.655 944.325 146.755 944.325 159.473C944.325 172.584 935.649 183.794 918.296 193.102C900.943 202.367 879.414 207 853.709 207C828.652 207 807.268 202.367 789.555 193.102C771.842 183.794 762.986 172.584 762.986 159.473C762.986 146.318 771.662 135.108 789.015 125.843C806.367 116.534 827.932 111.88 853.709 111.88ZM854.033 114.568C838.193 114.568 825.556 118.741 816.124 127.089C806.692 135.392 801.975 146.187 801.975 159.473C801.975 172.715 806.872 183.51 816.664 191.857C826.456 200.16 838.913 204.312 854.033 204.312C869.802 204.312 882.403 200.16 891.835 191.857C901.267 183.51 905.984 172.715 905.984 159.473C905.984 146.187 901.087 135.392 891.295 127.089C881.503 118.741 869.082 114.568 854.033 114.568Z" fill="#FF0000"/>
<path d="M955.19 113.781H1015.67L1120.65 179.139V146.69C1120.65 134.322 1117.27 126.171 1110.5 122.238C1103.73 118.304 1095.2 116.338 1084.9 116.338V113.781H1159.43V116.338C1149.35 116.338 1141.03 118.108 1134.48 121.648C1128 125.188 1124.76 133.754 1124.76 147.345V206.213H1121.08L990.94 125.384V176.779C990.94 188.579 994.54 195.856 1001.74 198.609C1008.94 201.362 1018.73 202.739 1031.12 202.739V205.296H952.274V202.739C960.627 202.739 968.475 201.428 975.819 198.806C983.163 196.183 986.836 189.912 986.836 179.991V135.676C986.836 127.81 984.063 122.631 978.519 120.14C973.047 117.605 965.271 116.338 955.19 116.338V113.781Z" fill="#FF0000"/>
</svg>
