<svg width="424" height="221" viewBox="0 0 424 221" fill="none" xmlns="http://www.w3.org/2000/svg">
<path d="M64.7645 71.6685H100.44C127.297 72.3246 147.056 76.6256 159.716 84.5715C172.376 92.5174 178.706 102.65 178.706 114.97C178.706 127.727 172.23 137.386 159.277 143.947C146.397 150.508 132.127 153.789 116.466 153.789H0L0 149.524C13.1724 149.524 21.8077 147.046 25.9058 142.088C30.0771 137.131 32.1627 129.295 32.1627 118.579L32.1627 36.3492C32.1627 25.6331 30.0771 17.7965 25.9058 12.8394C21.8077 7.88229 13.1724 5.40374 0 5.40374L0 1.13918L163.667 1.13918V60.515H159.935C153.495 37.4062 145.226 22.4255 135.127 15.5731C125.102 8.64772 108.124 5.18504 84.1938 5.18504L64.7645 5.18504V71.6685ZM64.7645 149.633H97.3662C110.758 149.633 121.369 146.426 129.2 140.011C137.03 133.596 140.945 124.265 140.945 112.018C140.945 100.646 136.664 91.8249 128.102 85.5556C119.613 79.2864 107.099 76.1517 90.5605 76.1517H64.7645L64.7645 149.633Z" fill="black"/>
<path d="M200.333 50.5701C200.333 64.0555 197.466 69.6744 191.139 69.6744C188.667 69.6744 186.492 68.2135 184.317 65.9659L183.724 66.6402L186.196 69.562V83.1598H179.275V1.12378L186.097 1.12378V2.35994L183.823 19.4414L184.812 19.6662C186.888 2.80944 190.249 0 194.006 0C197.664 0 200.333 3.48372 200.333 9.10262V50.5701ZM193.215 51.2444V13.4854C193.215 9.43975 192.325 7.6417 190.644 7.6417C188.469 7.6417 186.196 15.2834 186.196 25.6222V60.2346C187.481 61.6956 188.865 62.4822 190.447 62.4822C192.325 62.4822 193.215 60.9089 193.215 51.2444Z" fill="black"/>
<path d="M292.869 128.484C290.918 131.299 287.992 134.725 284.09 138.763C280.188 142.679 275.921 146.534 271.287 150.328C266.776 153.999 262.203 157.181 257.57 159.873C253.058 162.443 249.095 163.728 245.681 163.728C241.779 163.728 239.097 162.627 237.634 160.424C236.171 158.099 235.439 155.101 235.439 151.429C235.439 147.024 236.231 142.679 237.817 138.396C239.402 134.113 241.353 130.014 243.669 126.098C245.986 122.059 248.547 118.204 251.351 114.533C254.156 110.739 256.716 107.068 259.033 103.519C261.35 99.8479 263.301 96.3602 264.886 93.0561C266.471 89.7519 267.263 86.5089 267.263 83.3272C267.263 80.6349 266.654 78.3098 265.434 76.3518C264.215 74.3937 262.63 72.864 260.679 71.7627C258.85 70.5389 256.716 69.6823 254.277 69.1928C251.839 68.5809 249.461 68.2749 247.144 68.2749C241.901 68.2749 235.866 69.4375 229.037 71.7627C222.209 74.0878 215.747 77.2696 209.65 81.308C203.553 85.3464 198.371 90.119 194.104 95.626C189.958 101.133 187.885 107.007 187.885 113.248C187.885 117.164 189.348 120.346 192.275 122.793C195.201 125.119 198.554 126.281 202.334 126.281C207.455 126.281 212.942 124.629 218.795 121.325C224.648 117.898 230.257 113.003 235.622 106.64C238.67 103.091 240.987 99.542 242.572 95.9931C244.157 92.4442 245.315 89.3236 246.047 86.6313C246.901 83.8167 247.449 81.5527 247.693 79.8395C248.059 78.1262 248.547 77.2696 249.156 77.2696C250.01 77.2696 250.437 77.7591 250.437 78.7381C250.437 79.4723 250.193 81.2468 249.705 84.0614C249.339 86.8761 248.547 90.1802 247.327 93.9739C246.108 97.6451 244.462 101.561 242.389 105.722C240.316 109.883 237.573 113.738 234.159 117.286C230.745 120.713 226.66 123.589 221.904 125.914C217.149 128.117 211.479 129.218 204.895 129.218C198.92 129.218 194.226 127.688 190.812 124.629C187.397 121.57 185.69 117.898 185.69 113.615C185.69 109.577 186.605 105.6 188.434 101.684C190.385 97.7675 192.945 94.0351 196.116 90.4862C199.286 86.9373 202.883 83.6943 206.907 80.7573C211.052 77.6979 215.381 75.128 219.892 73.0476C224.404 70.8448 228.915 69.1316 233.427 67.9078C238.06 66.6841 242.389 66.0722 246.413 66.0722C254.217 66.0722 260.435 68.0302 265.069 71.9462C269.702 75.7399 272.019 82.5929 272.019 92.5054C272.019 96.4214 271.226 100.337 269.641 104.253C268.056 108.169 266.105 112.085 263.788 116.002C261.472 119.918 258.911 123.772 256.107 127.566C253.302 131.237 250.741 134.847 248.425 138.396C246.108 141.823 244.157 145.066 242.572 148.125C240.987 151.185 240.194 153.999 240.194 156.569C240.194 158.405 240.743 159.69 241.84 160.424C242.938 161.158 244.34 161.525 246.047 161.525C247.998 161.525 250.802 160.608 254.46 158.772C258.24 156.936 262.325 154.428 266.715 151.246C271.226 148.064 275.738 144.332 280.249 140.048C284.883 135.643 288.967 130.87 292.503 125.73C301.648 112.636 309.94 102.173 317.378 94.341C324.938 86.3866 331.461 80.329 336.948 76.1682C342.435 72.0074 346.824 69.3151 350.117 68.0914C353.531 66.7453 355.725 66.0722 356.701 66.0722C357.555 66.0722 357.981 66.4393 357.981 67.1736C357.981 67.7854 357.372 68.3361 356.152 68.8256C354.933 69.1928 353.287 69.8046 351.214 70.6613C349.141 71.5179 346.703 72.8029 343.898 74.5161C341.094 76.107 338.045 78.3709 334.753 81.308C331.583 84.245 328.291 88.0387 324.877 92.6889C321.462 97.2168 318.048 102.846 314.634 109.577C313.049 112.759 311.098 116.675 308.781 121.325C306.465 125.853 303.965 130.687 301.283 135.826C298.6 140.966 295.735 146.228 292.686 151.613C289.76 156.997 286.773 162.137 283.724 167.032C280.798 171.927 277.932 176.394 275.128 180.432C272.324 184.471 269.702 187.714 267.263 190.161C257.387 200.074 245.925 207.661 232.878 212.923C219.953 218.308 206.48 221 192.458 221C186.727 221 180.996 220.205 175.265 218.614C169.534 217.145 164.352 214.82 159.719 211.638C155.085 208.456 151.305 204.479 148.379 199.707C145.453 194.934 143.989 189.305 143.989 182.819C143.989 176.822 145.514 171.315 148.562 166.298C151.732 161.158 155.695 156.753 160.45 153.081C165.328 149.41 170.632 146.534 176.362 144.454C182.093 142.374 187.641 141.333 193.006 141.333C198.371 141.333 203.249 142.068 207.638 143.536C212.15 145.005 215.93 147.024 218.978 149.594C222.148 152.164 224.587 155.101 226.294 158.405C228.001 161.709 228.855 165.197 228.855 168.868C228.855 173.885 227.696 178.352 225.379 182.268C223.063 186.184 220.075 189.488 216.417 192.18C212.759 194.75 208.614 196.708 203.98 198.055C199.469 199.401 194.957 200.074 190.446 200.074C188.861 200.074 187.215 199.951 185.507 199.707C183.8 199.462 182.215 199.156 180.752 198.789C179.289 198.422 178.07 198.055 177.094 197.687C176.241 197.32 175.814 196.953 175.814 196.586C175.814 195.974 176.119 195.668 176.728 195.668C177.094 195.668 177.521 195.791 178.009 196.035C178.618 196.28 179.472 196.525 180.569 196.77C181.788 197.014 183.313 197.259 185.142 197.504C187.093 197.749 189.531 197.871 192.458 197.871C196.238 197.871 200.139 197.198 204.163 195.852C208.187 194.506 211.784 192.67 214.954 190.345C218.124 187.897 220.746 184.96 222.819 181.534C224.892 178.107 225.928 174.252 225.928 169.969C225.928 165.809 225.075 162.321 223.368 159.506C221.782 156.569 219.588 154.244 216.783 152.531C214.101 150.817 210.991 149.594 207.455 148.859C204.041 148.003 200.566 147.574 197.03 147.574C191.299 147.574 185.507 148.553 179.655 150.512C173.924 152.47 168.742 155.223 164.108 158.772C159.597 162.321 155.878 166.665 152.951 171.805C150.147 176.945 148.745 182.635 148.745 188.876C148.745 194.383 150.208 199.034 153.134 202.827C156.183 206.621 159.902 209.68 164.291 212.005C168.803 214.453 173.558 216.166 178.557 217.145C183.557 218.247 188.068 218.797 192.092 218.797C201.846 218.797 210.565 217.573 218.246 215.126C225.928 212.801 232.817 209.497 238.914 205.214C245.133 201.053 250.68 196.158 255.558 190.528C260.557 184.777 265.19 178.597 269.458 171.988C273.726 165.258 277.75 158.282 281.529 151.062C285.309 143.72 289.211 136.316 293.235 128.851L292.869 128.484Z" fill="black"/>
<path d="M350.092 127.987L354.864 121.499L360.026 72.6032L356.689 66.8559L356.767 66.0722H366.963L375.072 110.57L392.647 66.0722H402.373L402.321 66.8559L397.836 72.6032L392.595 122.196L395.828 127.987L395.75 128.727H380.809L380.887 127.987L385.346 122.196L390.222 75.9994L371.474 123.284H369.674L360.965 76.2606L356.193 121.499L359.609 127.987L359.505 128.727H350.013L350.092 127.987Z" fill="black"/>
<path d="M400.666 55.8196C412.333 55.8196 412.333 44.1545 412.333 37.5928C412.333 44.1545 412.333 55.8196 424 55.8196C412.333 55.8196 412.333 67.4848 412.333 74.0464C412.333 67.4848 412.333 55.8196 400.666 55.8196Z" fill="black"/>
<path fill-rule="evenodd" clip-rule="evenodd" d="M410.609 49.0632C412.045 45.3854 412.048 40.8846 412.048 37.5928H412.617C412.617 40.8846 412.621 45.3854 414.056 49.0632C414.771 50.8953 415.837 52.5081 417.422 53.6642C419.006 54.819 421.133 55.5348 424 55.5348V56.1044C421.133 56.1044 419.006 56.8203 417.422 57.975C415.837 59.1311 414.771 60.7439 414.056 62.576C412.621 66.2538 412.617 70.7546 412.617 74.0464H412.048C412.048 70.7546 412.045 66.2538 410.609 62.576C409.894 60.7439 408.829 59.1311 407.243 57.975C405.659 56.8203 403.533 56.1044 400.666 56.1044V55.5348C403.533 55.5348 405.659 54.819 407.243 53.6642C408.829 52.5081 409.894 50.8953 410.609 49.0632ZM403.636 55.8196C405.201 56.1428 406.501 56.7289 407.578 57.5146C409.274 58.7508 410.396 60.4644 411.14 62.3688C411.764 63.9688 412.125 65.714 412.333 67.4427C412.541 65.714 412.902 63.9688 413.526 62.3688C414.27 60.4644 415.392 58.7508 417.087 57.5146C418.165 56.7289 419.465 56.1428 421.03 55.8196C419.465 55.4964 418.165 54.9103 417.087 54.1246C415.392 52.8884 414.27 51.1749 413.526 49.2705C412.902 47.6705 412.541 45.9252 412.333 44.1965C412.125 45.9252 411.764 47.6705 411.14 49.2705C410.396 51.1749 409.274 52.8884 407.578 54.1246C406.501 54.9103 405.201 55.4964 403.636 55.8196Z" fill="black"/>
<path d="M183.828 172.87C194.642 172.87 194.642 162.116 194.642 156.067C194.642 162.116 194.642 172.87 205.455 172.87C194.642 172.87 194.642 183.624 194.642 189.673C194.642 183.624 194.642 172.87 183.828 172.87Z" fill="black"/>
<path fill-rule="evenodd" clip-rule="evenodd" d="M193.025 166.633C194.354 163.247 194.357 159.103 194.357 156.067H194.926C194.926 159.103 194.93 163.247 196.258 166.633C196.92 168.319 197.905 169.802 199.371 170.864C200.834 171.926 202.801 172.585 205.455 172.585V173.155C202.801 173.155 200.834 173.814 199.371 174.875C197.905 175.938 196.92 177.421 196.258 179.107C194.93 182.493 194.926 186.637 194.926 189.673H194.357C194.357 186.637 194.354 182.493 193.025 179.107C192.364 177.421 191.378 175.938 189.913 174.875C188.449 173.814 186.483 173.155 183.828 173.155V172.585C186.483 172.585 188.449 171.926 189.913 170.864C191.378 169.802 192.364 168.319 193.025 166.633ZM186.689 172.87C188.095 173.172 189.269 173.705 190.247 174.414C191.822 175.557 192.865 177.14 193.555 178.899C194.114 180.325 194.446 181.875 194.642 183.416C194.838 181.875 195.169 180.325 195.729 178.899C196.419 177.14 197.461 175.557 199.037 174.414C200.014 173.705 201.188 173.172 202.595 172.87C201.188 172.567 200.014 172.035 199.037 171.326C197.461 170.183 196.419 168.6 195.729 166.841C195.169 165.415 194.838 163.865 194.642 162.324C194.446 163.865 194.114 165.415 193.555 166.841C192.865 168.6 191.822 170.183 190.247 171.326C189.269 172.035 188.095 172.567 186.689 172.87Z" fill="black"/>
</svg>
